<?xml version="1.0" standalone="no"?>
<!DOCTYPE svg PUBLIC "-//W3C//DTD SVG 20010904//EN"
 "http://www.w3.org/TR/2001/REC-SVG-20010904/DTD/svg10.dtd">
<svg version="1.0" xmlns="http://www.w3.org/2000/svg"
 width="1092.000000pt" height="1215.000000pt" viewBox="0 0 1092.000000 1215.000000"
 preserveAspectRatio="xMidYMid meet">

<g transform="translate(0.000000,1215.000000) scale(0.100000,-0.100000)"
fill="#000000" stroke="none">
<path d="M470 6010 l0 -5830 5080 0 5080 0 0 5830 0 5830 -5080 0 -5080 0 0
-5830z m325 5800 c3 -5 17 -10 31 -10 21 0 24 -5 24 -35 l0 -34 -87 -3 c-87
-3 -88 -3 -91 -30 -3 -24 -8 -27 -45 -30 l-42 -3 -5 -440 -5 -440 -28 -1 c-23
-1 -29 4 -34 27 -3 16 -9 29 -14 29 -5 0 -9 217 -9 490 l0 490 149 0 c89 0
152 -4 156 -10z m1101 1 c5 -5 20 -11 34 -13 20 -2 25 -9 25 -33 l0 -30 -259
-3 c-143 -1 -263 1 -267 5 -4 5 -5 20 -2 36 4 22 11 27 34 27 16 0 29 5 29 10
0 13 392 14 406 1z m1104 0 c0 -5 12 -11 27 -13 24 -3 28 -8 28 -33 l0 -30
-260 0 -260 0 0 30 c0 25 4 30 28 33 15 2 27 8 27 13 0 5 85 9 205 9 120 0
205 -4 205 -9z m1100 0 c0 -5 12 -11 28 -13 20 -2 28 -9 30 -27 2 -13 0 -27
-6 -33 -11 -11 -502 -12 -513 -1 -4 5 -5 20 -2 36 4 20 11 27 29 27 13 0 24 5
24 10 0 6 75 10 205 10 120 0 205 -4 205 -9z m1100 -1 c0 -5 11 -10 25 -10 22
0 25 -4 25 -35 l0 -35 -85 0 -85 0 0 -591 c0 -381 -3 -588 -10 -584 -6 4 -10
220 -9 588 l0 582 -163 5 -163 5 0 30 c0 25 4 30 28 33 15 2 27 8 27 13 0 5
85 9 205 9 130 0 205 -4 205 -10z m1110 1 c0 -5 12 -11 27 -13 24 -3 28 -8 28
-33 l0 -30 -163 -5 -163 -5 0 -582 c1 -368 -3 -584 -9 -588 -7 -4 -10 203 -10
584 l0 591 -87 0 c-49 0 -94 4 -101 8 -19 13 2 62 27 62 11 0 23 5 26 10 8 13
425 14 425 1z m1100 -1 c0 -5 11 -10 24 -10 18 0 25 -7 29 -27 3 -16 2 -31 -2
-36 -10 -11 -503 -9 -514 2 -5 5 -7 19 -5 32 2 18 10 25 31 27 15 2 27 8 27
13 0 5 85 9 205 9 130 0 205 -4 205 -10z m1100 1 c0 -5 12 -11 28 -13 23 -3
27 -8 27 -33 l0 -30 -240 -3 c-132 -1 -250 0 -263 3 -18 4 -22 11 -19 33 3 21
10 28 30 30 15 2 27 8 27 13 0 5 85 9 205 9 120 0 205 -4 205 -9z m1100 -1 c0
-5 13 -10 29 -10 23 0 30 -5 34 -27 3 -16 0 -31 -6 -35 -7 -5 -127 -7 -267 -5
l-255 2 0 30 c0 24 5 31 25 33 14 2 29 8 35 13 13 13 405 12 405 -1z m1000
-1540 c0 -879 -4 -1550 -9 -1550 -5 0 -11 -14 -15 -31 -5 -26 -10 -30 -33 -27
-26 3 -28 6 -31 56 -2 28 -6 52 -10 53 -4 0 -244 1 -535 2 l-527 2 -1 -330 c0
-181 -1 -372 -2 -423 -2 -68 1 -92 11 -92 6 0 12 -4 12 -10 0 -5 -18 -10 -40
-10 l-40 0 0 -60 c0 -33 -4 -60 -10 -60 -7 0 -10 171 -10 493 l0 492 -512 -2
-513 -3 -3 -430 -2 -430 -24 0 c-22 0 -23 -3 -18 -50 4 -49 4 -50 -22 -50 -14
0 -26 -5 -26 -12 0 -6 -41 -50 -90 -96 l-91 -84 31 -23 c17 -13 43 -27 58 -33
65 -23 100 -32 121 -32 22 0 23 -3 19 -65 -4 -59 -2 -64 17 -67 20 -3 20 -7
23 -625 l2 -623 515 0 515 0 0 685 c0 450 3 685 10 685 6 0 10 -26 10 -59 0
-57 1 -59 30 -64 l30 -6 0 -618 -1 -618 536 -3 535 -2 -3 947 -2 948 -347 3
c-275 2 -348 0 -349 -10 0 -7 0 -61 1 -119 1 -67 -3 -109 -9 -114 -7 -4 -11
12 -11 49 0 53 -1 56 -25 56 -14 0 -25 5 -25 10 0 6 11 10 25 10 24 0 25 3 25
55 0 40 -4 57 -15 61 -8 4 -15 14 -15 25 0 18 16 18 408 16 l407 -2 3 -27 c2
-16 8 -28 13 -28 5 0 9 -591 9 -1535 l0 -1535 -5060 0 -5060 0 0 1586 0 1585
43 -3 42 -3 5 -85 5 -85 220 -3 c126 -1 224 -7 229 -12 7 -7 -71 -10 -222 -10
l-232 0 0 -270 0 -270 240 0 c150 0 240 -4 240 -10 0 -6 -91 -11 -237 -12
l-238 -3 -3 -252 -2 -252 82 -3 83 -3 0 -240 0 -240 -82 -3 -83 -3 0 -109 0
-110 535 2 535 3 0 605 0 605 -170 3 c-107 1 -170 6 -170 13 0 6 60 9 168 9
92 -1 179 1 194 5 16 4 36 4 45 0 10 -3 104 -6 210 -5 122 0 194 -3 198 -10 4
-7 -58 -10 -194 -10 l-201 0 0 -610 0 -610 515 0 515 0 -2 608 -3 607 -178 3
c-113 1 -176 6 -172 12 4 6 78 10 181 10 l174 0 0 116 0 117 46 -7 c26 -3 147
-6 270 -6 143 0 224 -4 224 -10 0 -6 -85 -10 -235 -10 -202 0 -235 -2 -235
-15 0 -17 16 -20 25 -5 4 6 90 10 225 10 l219 0 15 -50 c18 -59 55 -130 69
-130 6 0 52 41 103 90 l93 90 123 0 c68 0 129 -4 136 -8 10 -7 12 -155 10
-708 l-3 -699 -508 0 c-279 0 -507 -3 -507 -7 0 -5 232 -8 515 -8 l515 0 0
720 0 720 -140 0 c-87 0 -140 4 -140 10 0 6 50 10 129 10 70 0 149 3 175 6
l46 7 0 -92 c0 -91 0 -91 26 -91 14 0 23 -4 19 -10 -3 -5 -15 -10 -26 -10 -19
0 -19 -13 -19 -635 l0 -635 515 0 515 0 0 635 0 635 -355 0 c-216 0 -355 4
-355 9 0 6 149 11 378 13 502 4 774 0 767 -12 -4 -6 -82 -10 -186 -10 l-179 0
0 -635 0 -635 520 0 520 0 0 635 0 635 -194 0 c-119 0 -197 4 -201 10 -4 7 66
10 204 10 235 0 212 -7 224 70 3 15 5 8 6 -16 1 -27 6 -44 16 -48 9 -3 15 -18
15 -36 l0 -30 193 -2 192 -2 -190 -6 -190 -5 -3 -607 -2 -608 515 0 515 0 -2
608 -3 607 -190 5 -190 6 192 2 c115 1 194 6 198 12 3 6 17 10 30 10 13 0 27
-4 30 -10 4 -6 82 -11 193 -12 l187 -2 -185 -6 -185 -5 -3 -607 -2 -608 515 0
c283 0 515 3 515 8 0 4 -228 7 -507 7 l-508 0 -3 593 -2 592 183 0 182 0 90
-90 c49 -49 93 -90 96 -90 4 0 9 8 13 18 3 9 17 35 31 57 14 22 25 55 25 73
l0 32 188 0 c137 0 192 -3 201 -12 10 -11 12 -9 9 7 -3 19 -13 20 -203 25
l-200 5 200 5 c189 5 200 6 204 25 3 16 1 17 -11 7 -10 -8 -75 -12 -204 -14
l-189 -3 -6 -50 c-6 -55 -30 -118 -50 -130 -8 -6 -44 24 -107 89 l-94 97 -409
0 c-225 0 -413 -2 -417 -5 -5 -3 -12 -28 -15 -57 -7 -54 -34 -121 -53 -126
-12 -4 -157 135 -174 167 -10 19 -20 20 -150 20 l-140 0 0 270 0 270 135 0
134 0 92 95 c51 53 97 94 102 92 20 -6 47 -72 53 -129 l7 -58 189 0 c181 0
190 -1 195 -20 4 -16 14 -20 48 -20 34 0 44 4 48 20 5 19 14 20 191 20 144 0
186 3 186 13 0 21 166 180 180 172 21 -13 50 -95 50 -141 l0 -44 195 0 c123 0
195 -4 195 -10 0 -5 5 -10 10 -10 6 0 10 7 10 15 0 13 -28 15 -189 15 -116 0
-192 4 -196 10 -4 7 62 10 189 10 150 0 196 3 196 13 0 9 -45 11 -200 9 l-200
-3 0 25 c0 40 -54 146 -74 146 -3 0 -44 -38 -90 -85 l-83 -85 -187 0 -186 0 0
385 0 385 500 0 c327 0 500 -3 500 -10 0 -5 5 -10 11 -10 6 0 9 7 7 15 -3 14
-64 15 -513 15 l-510 0 -3 -400 -2 -400 185 0 c117 0 185 -4 185 -10 0 -6 -68
-10 -184 -10 -175 0 -184 -1 -189 -20 -7 -28 -57 -28 -64 0 -5 19 -14 20 -189
20 -111 0 -185 4 -189 10 -4 7 60 10 184 10 l191 0 0 400 0 400 -505 0 c-278
0 -508 0 -512 0 -5 0 -9 -180 -11 -400 l-2 -400 190 0 c131 0 189 -3 185 -10
-4 -7 -70 -11 -183 -10 -98 1 -187 -2 -199 -6 -21 -6 -23 -13 -25 -78 l-2 -71
-3 72 c-3 56 -8 73 -21 78 -9 3 -103 6 -209 5 -122 0 -194 3 -198 10 -4 7 59
10 195 10 l200 0 -2 401 -3 401 -127 -1 -128 -2 0 40 0 41 685 -1 c377 0 690
3 695 6 6 3 14 4 19 0 7 -4 2154 -7 3304 -5 4 0 6 636 5 1413 l-3 1412 -47 3
c-43 3 -48 6 -48 27 0 23 -3 24 -82 27 l-83 3 -3 33 c-3 28 0 32 22 32 14 0
28 5 31 10 4 6 67 10 156 10 l149 0 0 -1550z m-9205 1520 c4 -7 -87 -10 -265
-10 -178 0 -269 3 -265 10 4 6 103 10 265 10 162 0 261 -4 265 -10z m1105 0
c0 -6 -95 -10 -265 -10 -170 0 -265 4 -265 10 0 6 95 10 265 10 170 0 265 -4
265 -10z m1100 0 c0 -6 -95 -10 -265 -10 -170 0 -265 4 -265 10 0 6 95 10 265
10 170 0 265 -4 265 -10z m1100 0 c0 -6 -95 -10 -266 -10 -174 0 -263 3 -259
10 4 6 103 10 266 10 166 0 259 -4 259 -10z m1095 0 c4 -7 -85 -10 -259 -10
-171 0 -266 4 -266 10 0 6 93 10 259 10 163 0 262 -4 266 -10z m1110 0 c4 -7
-85 -10 -259 -10 -171 0 -266 4 -266 10 0 6 93 10 259 10 163 0 262 -4 266
-10z m1105 0 c0 -6 -95 -10 -265 -10 -170 0 -265 4 -265 10 0 6 95 10 265 10
170 0 265 -4 265 -10z m1100 0 c0 -6 -95 -10 -265 -10 -170 0 -265 4 -265 10
0 6 95 10 265 10 170 0 265 -4 265 -10z m1105 0 c4 -7 -87 -10 -265 -10 -178
0 -269 3 -265 10 4 6 103 10 265 10 162 0 261 -4 265 -10z m-8815 -40 c0 -20
-7 -20 -269 -20 -260 0 -292 3 -276 30 4 6 107 10 276 10 262 0 269 0 269 -20z
m1105 0 c0 -13 -38 -15 -272 -18 -269 -2 -273 -2 -273 18 0 20 4 20 273 18
234 -3 272 -5 272 -18z m1100 0 c0 -13 -37 -15 -264 -18 -154 -1 -269 2 -274
7 -27 27 10 31 271 29 230 -3 267 -5 267 -18z m1100 0 c0 -13 -37 -15 -264
-18 -154 -1 -269 2 -274 7 -27 27 10 31 271 29 230 -3 267 -5 267 -18z m1095
0 c0 -19 -7 -20 -262 -20 -145 0 -269 4 -277 9 -40 26 7 31 270 31 262 0 269
0 269 -20z m1115 0 c0 -13 -37 -15 -264 -18 -154 -1 -269 2 -274 7 -27 27 10
31 271 29 230 -3 267 -5 267 -18z m1100 0 c0 -13 -37 -15 -260 -17 -143 -2
-266 1 -274 6 -7 5 -10 14 -7 20 5 8 84 11 274 9 230 -3 267 -5 267 -18z
m1103 3 c-3 -17 -25 -18 -267 -21 -154 -1 -269 2 -274 7 -27 27 11 31 274 31
252 0 270 -1 267 -17z m1108 6 c15 -24 -31 -29 -281 -26 -238 2 -260 3 -263
20 -3 16 15 17 267 17 187 0 272 -3 277 -11z m-8798 -686 l-3 -637 -41 -8
c-23 -3 -63 -20 -89 -36 l-47 -29 91 -91 c68 -67 91 -97 91 -116 l0 -26 -422
2 -423 3 0 755 0 755 43 3 c36 3 42 6 42 26 0 12 3 26 7 29 3 4 174 7 380 7
l373 0 -2 -637z m1100 65 l-3 -573 -28 -3 c-24 -3 -43 11 -122 89 -80 78 -97
90 -109 79 -20 -16 -66 -113 -66 -138 0 -11 -7 -23 -16 -26 -20 -8 -688 -8
-708 0 -14 6 -16 66 -16 575 l0 569 535 0 535 0 -2 -572z m1360 0 l-3 -573
-480 -3 c-442 -2 -481 -1 -492 15 -7 9 -13 29 -13 43 0 24 -52 120 -66 120 -3
0 -48 -41 -100 -91 -88 -85 -96 -90 -131 -87 l-38 3 -3 560 c-1 308 0 566 3
573 3 9 146 12 665 12 l660 0 -2 -572z m19 -285 c-1 -159 -2 -29 -2 287 0 316
1 446 2 288 2 -159 2 -417 0 -575z m1133 287 l0 -570 -239 0 c-149 0 -242 -4
-246 -10 -8 -13 -218 -13 -231 0 -5 5 -93 11 -199 12 l-190 3 -3 555 c-1 305
0 561 3 568 3 9 124 12 555 12 l550 0 0 -570z m958 20 c1 -300 0 -555 -3 -567
-4 -16 -13 -23 -30 -23 -13 0 -27 -4 -30 -10 -4 -6 -55 -10 -121 -10 -69 0
-114 4 -114 10 0 6 -108 10 -304 10 -268 0 -305 2 -310 16 -8 22 -8 1109 1
1117 3 4 209 6 457 5 l451 -3 3 -545z m1147 -20 l0 -565 -350 -3 c-213 -1
-353 -6 -359 -12 -13 -13 -223 -13 -231 0 -3 6 -42 10 -86 10 l-79 0 0 570 0
570 553 -2 552 -3 0 -565z m3245 546 c0 -23 5 -25 48 -28 l47 -3 3 -1392 2
-1393 -1635 0 -1636 0 5 273 c2 149 7 294 11 320 5 32 3 53 -4 60 -12 12 -17
971 -5 1001 3 8 12 12 19 10 21 -8 28 16 11 35 -9 10 -16 27 -16 39 0 17 -6
22 -25 22 l-25 0 0 533 c0 294 3 537 7 540 3 4 723 7 1600 7 l1593 0 0 -24z
m-9903 -1348 c-1 -90 -3 -17 -3 162 0 179 2 252 3 163 2 -90 2 -236 0 -325z
m78 161 c0 -228 -2 -264 -15 -264 -13 0 -15 36 -18 255 -1 140 0 261 3 268 3
8 11 12 18 9 9 -3 12 -65 12 -268z m-48 -131 c-1 -73 -3 -14 -3 132 0 146 2
205 3 133 2 -73 2 -193 0 -265z m2038 162 l100 0 90 90 c67 68 92 87 102 79
21 -19 42 -69 49 -120 l7 -49 493 0 c478 0 494 -1 494 -19 0 -10 7 -21 15 -25
22 -8 22 -377 0 -396 -13 -11 -15 -95 -17 -619 l-3 -606 -385 0 -385 0 -3 443
-2 442 -300 0 -300 0 0 -35 c0 -19 -4 -43 -10 -53 -5 -9 -14 -29 -20 -45 -18
-52 -36 -45 -129 47 -118 117 -125 117 -245 -3 -49 -49 -94 -87 -101 -85 -17
7 -36 50 -49 114 l-12 55 -264 5 -265 5 -3 28 c-3 24 -7 27 -44 27 -42 0 -99
22 -118 46 -10 10 5 30 70 96 53 53 85 94 89 113 5 21 14 31 29 33 19 3 22 10
22 45 0 39 -6 47 -87 129 -76 76 -85 89 -73 103 20 24 77 45 121 45 l38 0 3
53 3 52 375 5 375 5 6 56 c4 35 15 69 29 89 l23 32 91 -91 91 -91 100 0z
m4622 58 c-3 -8 -6 -5 -6 6 -1 11 2 17 5 13 3 -3 4 -12 1 -19z m53 13 c0 -13
-26 -32 -33 -24 -14 13 -6 33 13 33 11 0 20 -4 20 -9z m-2683 -104 c-7 -47
-36 -107 -52 -107 -14 0 -135 122 -135 137 0 10 25 13 96 13 l97 0 -6 -43z
m1379 29 c9 -22 -15 -93 -40 -123 l-23 -27 -72 72 c-40 39 -70 76 -66 82 10
16 194 13 201 -4z m484 1 c0 -20 -134 -147 -146 -139 -21 13 -54 86 -54 119
l0 33 100 0 c74 0 100 -3 100 -13z m-2011 -84 c45 -46 88 -83 94 -83 14 0 37
41 66 115 l19 50 547 3 548 2 94 -92 95 -93 24 30 c28 33 41 61 48 101 9 50
20 54 140 54 l112 0 13 -47 c7 -27 27 -69 44 -95 l32 -47 96 94 96 95 344 0
c189 0 350 -4 358 -9 12 -8 -2 -26 -62 -88 -42 -44 -77 -82 -77 -86 0 -3 20
-18 45 -33 l46 -26 -38 -20 c-21 -11 -42 -24 -47 -29 -6 -5 19 -38 62 -83 40
-41 72 -81 72 -90 0 -15 -138 -16 -1615 -16 -1477 0 -1615 1 -1615 16 0 9 32
49 72 90 43 45 68 78 62 83 -5 5 -26 18 -47 29 l-38 20 46 26 c25 15 45 30 45
34 0 4 -27 34 -61 67 -66 66 -83 90 -73 106 4 7 70 9 189 7 l182 -3 82 -82z
m2808 -250 c-1 -54 -3 -12 -3 92 0 105 2 149 3 98 2 -51 2 -136 0 -190z
m-3206 206 c27 -28 46 -56 43 -61 -9 -14 -69 -38 -94 -38 -18 0 -20 6 -20 75
0 49 4 75 11 75 6 0 33 -23 60 -51z m3179 -25 l0 -77 -36 6 c-20 3 -47 13 -61
23 l-25 16 53 54 c29 30 57 54 61 54 4 0 8 -34 8 -76z m-3170 -114 c22 -11 40
-24 40 -27 0 -13 -94 -103 -107 -103 -9 0 -13 19 -13 68 0 92 9 98 80 62z
m3170 -55 c0 -55 -4 -75 -13 -75 -20 0 -107 93 -99 106 11 17 64 43 90 44 21
0 22 -4 22 -75z m-6615 -230 l0 -240 -30 0 c-25 0 -30 4 -33 28 -2 15 -8 27
-13 27 -5 0 -9 77 -9 185 0 102 4 185 9 185 5 0 11 14 15 31 5 26 10 30 33 27
l28 -3 0 -240z m815 97 c0 -21 -19 -46 -85 -112 -47 -47 -85 -88 -85 -92 0
-14 74 -54 123 -68 l47 -13 0 -458 0 -458 -387 -3 c-214 -2 -393 -1 -400 0 -9
3 -12 143 -12 609 0 333 2 610 5 614 3 5 183 9 400 9 l394 0 0 -28z m2530
-622 l-5 -585 -2 600 c-1 330 1 593 5 585 4 -8 5 -278 2 -600z m503 576 c3 -8
-27 -45 -73 -91 -87 -86 -103 -90 -132 -29 -18 34 -24 114 -11 127 3 4 52 7
109 7 77 0 103 -3 107 -14z m454 -45 c-4 -54 -26 -105 -52 -123 -13 -10 -165
141 -165 164 0 16 11 18 111 18 l112 0 -6 -59z m1123 44 c0 -13 -57 -15 -450
-15 -393 0 -450 2 -450 15 0 13 57 15 450 15 393 0 450 -2 450 -15z m980 5 c0
-6 -42 -10 -105 -10 -63 0 -105 4 -105 10 0 6 42 10 105 10 63 0 105 -4 105
-10z m-2172 -1178 c141 2 256 6 255 11 -2 4 -4 134 -5 290 l-3 282 -5 -285 -5
-285 -220 -3 c-121 -1 -230 0 -242 3 l-23 5 0 554 c0 305 3 561 6 570 13 35
49 15 147 -81 l99 -98 29 34 c15 19 37 62 47 95 l19 61 69 0 69 0 5 -250 6
-250 2 252 c1 155 6 254 12 258 7 4 10 -192 10 -579 l0 -586 105 0 105 0 0
-41 0 -40 -127 2 -128 1 -3 -401 -2 -401 185 0 c126 0 184 -3 180 -10 -4 -7
-73 -11 -183 -11 -97 0 -193 -1 -212 -2 -157 -6 -750 5 -750 13 0 6 125 10
355 10 l355 0 -2 403 c-2 221 -6 401 -10 400 -5 -2 -235 -3 -513 -3 l-505 0 0
-400 0 -400 26 0 c14 0 23 -4 19 -10 -3 -5 -15 -10 -25 -10 -14 0 -20 -8 -22
-32 -2 -26 -8 -34 -27 -36 -34 -5 -41 12 -41 106 l0 82 -369 0 c-236 0 -372 4
-376 10 -4 7 121 10 369 10 l375 0 3 188 c2 103 1 257 -2 342 l-5 155 -509 0
c-407 0 -510 -3 -514 -13 -2 -7 -1 -16 3 -20 4 -4 10 -1 12 6 3 9 38 12 124
12 l119 0 0 -239 c0 -232 -1 -240 -20 -246 -11 -4 -35 -6 -53 -5 -54 3 -56 2
-59 -47 l-3 -48 -44 -3 c-24 -2 -49 2 -54 7 -16 16 -27 13 -27 -7 0 -16 8 -17
65 -14 l65 4 0 -27 0 -27 -65 4 c-64 4 -65 3 -65 -21 0 -19 3 -22 12 -13 7 7
36 12 65 12 l53 0 2 -37 1 -38 4 38 4 37 60 0 c46 0 59 -3 59 -15 0 -13 51
-15 378 -17 l377 -3 3 -92 3 -93 44 0 c42 0 44 1 47 32 2 22 9 34 21 36 10 2
59 46 110 99 l92 95 22 -26 c25 -29 43 -85 43 -133 l0 -31 393 -4 c215 -1 483
-2 595 0 l202 4 0 23 c0 45 21 120 40 145 l19 25 86 -85 c47 -47 87 -92 90
-100 4 -13 31 -15 182 -12 98 2 193 0 211 -3 l32 -6 0 -69 0 -68 -90 -84 c-49
-47 -90 -87 -90 -90 0 -12 98 -68 119 -68 41 0 61 -18 61 -55 l0 -35 -210 0
c-160 0 -210 -3 -210 -12 0 -13 -169 -188 -181 -188 -17 0 -43 60 -53 124
l-12 71 -590 0 -589 0 -6 -51 c-7 -58 -36 -131 -55 -138 -7 -3 -56 40 -109 95
-53 54 -103 99 -111 99 -11 0 -14 18 -14 90 l0 90 -44 0 c-25 0 -48 -4 -51
-10 -4 -6 -63 -10 -146 -10 -76 0 -139 -4 -139 -9 0 -12 -168 -181 -181 -181
-17 0 -59 103 -59 148 l0 42 -229 0 c-127 0 -232 4 -235 9 -3 4 33 45 79 91
47 45 85 85 85 89 0 12 -118 71 -143 71 -14 0 -27 6 -30 13 -4 10 -7 10 -18 0
-7 -7 -26 -13 -41 -13 -27 0 -28 2 -28 48 l0 47 -174 -3 c-150 -3 -174 -1
-179 12 -6 14 14 16 173 16 l180 0 -2 385 -3 385 -513 3 -512 2 0 -387 0 -388
201 0 c156 0 200 -3 196 -12 -3 -10 -52 -13 -200 -13 l-196 0 -3 -30 c-3 -28
-6 -30 -38 -27 -19 2 -113 6 -207 8 -97 3 -173 9 -173 14 0 6 75 11 172 12 95
2 172 6 171 11 -2 4 -3 188 -3 410 l0 402 -527 -2 c-291 -2 -531 -3 -535 -3
-5 0 -8 -25 -8 -55 l0 -55 -45 0 -45 0 0 220 c0 121 4 220 9 220 5 0 11 13 14
29 5 23 11 28 34 27 l28 -1 3 -153 3 -152 1974 0 1975 0 0 583 c0 321 3 587 8
591 4 4 8 -258 10 -583 l2 -591 258 2z m1222 318 c-4 -225 -6 -152 -6 275 0
390 2 490 6 305 3 -151 3 -412 0 -580z m-1843 790 c13 -48 36 -94 61 -123 14
-16 22 -10 113 78 54 52 105 95 113 95 48 0 46 28 46 -575 0 -504 -2 -563 -16
-569 -9 -3 -132 -6 -274 -6 -142 0 -265 3 -274 6 -14 6 -16 65 -16 569 0 441
3 564 13 569 6 2 59 4 117 3 l104 -2 13 -45z m2801 5 c-4 -28 -16 -59 -33 -81
l-28 -36 -73 73 c-41 41 -74 77 -74 81 0 5 48 8 106 8 l107 0 -5 -45z m-157
-57 l92 -92 29 34 c16 19 37 61 46 92 l17 58 77 0 77 0 0 -565 0 -565 -559 0
-560 0 0 274 0 275 23 3 c19 3 22 10 25 51 3 45 2 47 -22 47 l-26 0 0 240 0
240 344 0 345 0 92 -92z m-1341 52 l0 -30 -194 0 c-186 0 -195 1 -201 20 -3
11 -3 24 0 30 4 6 81 10 201 10 l194 0 0 -30z m518 -29 c2 -12 1 -34 -3 -48
l-6 -25 -214 4 c-172 2 -216 0 -220 -10 -3 -8 -5 -142 -5 -298 0 -156 -4 -284
-9 -284 -4 0 -9 155 -10 345 l-1 345 232 -2 233 -3 3 -24z m-520 -38 l-3 -28
-192 -3 c-184 -2 -192 -2 -198 18 -3 11 -3 24 0 30 4 6 81 10 201 10 l195 0
-3 -27z m2 -73 l0 -30 -194 0 c-120 0 -197 4 -201 10 -3 6 -3 19 0 30 6 19 15
20 201 20 l194 0 0 -30z m515 10 c3 -11 3 -24 0 -30 -4 -6 -81 -10 -201 -10
l-194 0 0 30 0 30 194 0 c186 0 195 -1 201 -20z m-715 -55 c0 -2 -17 -16 -37
-30 -30 -19 -50 -25 -95 -25 -60 0 -73 8 -63 40 6 18 15 20 101 20 52 0 94 -2
94 -5z m200 -25 c0 -29 -1 -30 -48 -30 -27 0 -62 8 -82 18 -60 33 -50 42 44
42 l86 0 0 -30z m515 10 c3 -11 3 -24 0 -30 -8 -13 -181 -13 -205 0 -13 7 -21
7 -25 0 -3 -5 -42 -10 -86 -10 l-79 0 0 30 0 30 194 0 c186 0 195 -1 201 -20z
m-5508 -482 c-1 -90 -3 -17 -3 162 0 179 2 252 3 163 2 -90 2 -236 0 -325z
m4788 453 c-3 -6 -14 -10 -23 -10 -15 1 -15 2 1 6 9 2 17 9 17 15 0 6 3 9 6 5
3 -3 3 -10 -1 -16z m-4707 -290 c2 -256 1 -272 -15 -269 -17 3 -18 24 -21 263
-1 143 0 266 3 273 3 8 11 12 18 10 9 -4 13 -70 15 -277z m1368 262 c7 -10 14
-29 14 -41 0 -25 21 -74 45 -106 14 -19 19 -16 104 67 48 48 94 87 100 87 8 0
11 -111 9 -422 l-3 -423 -381 1 c-210 0 -389 4 -398 7 -14 6 -16 45 -16 411 0
222 3 411 6 420 5 14 37 16 256 16 227 0 252 -2 264 -17z m528 -138 c14 17 33
57 44 90 l20 60 274 0 273 0 3 -422 2 -423 -22 -5 c-13 -3 -198 -4 -413 -3
l-390 3 -3 430 -2 430 95 -95 95 -95 24 30z m-1947 -262 c-1 -76 -3 -14 -3
137 0 151 2 213 3 138 2 -76 2 -200 0 -275z m4688 387 c4 -7 12 -7 25 0 34 18
50 12 50 -20 l0 -30 -94 0 c-97 0 -114 8 -100 45 7 17 109 22 119 5z m145 0
c13 -7 21 -7 25 0 3 5 28 10 56 10 48 0 49 -1 49 -30 l0 -30 -90 0 -90 0 0 30
c0 32 16 38 50 20z m343 3 c-8 -3 -11 -14 -7 -29 6 -23 4 -24 -40 -24 -44 0
-46 1 -46 30 0 30 1 30 53 29 28 0 46 -3 40 -6z m301 -8 c12 -33 -4 -45 -64
-45 -57 0 -58 1 -62 30 l-5 30 63 0 c46 0 63 -4 68 -15z m-264 -5 c0 -5 -4
-10 -10 -10 -5 0 -10 5 -10 10 0 6 5 10 10 10 6 0 10 -4 10 -10z m120 6 c0 -3
-4 -8 -10 -11 -5 -3 -10 -1 -10 4 0 6 5 11 10 11 6 0 10 -2 10 -4z m-10 -38
c0 -11 -31 -10 -49 1 -7 5 -11 14 -7 20 8 12 56 -6 56 -21z m-72 10 c-5 -16
-48 -24 -48 -10 0 11 17 20 38 21 8 1 12 -5 10 -11z m-488 -58 l0 -30 -94 0
c-86 0 -95 2 -101 20 -11 34 3 40 101 40 l94 0 0 -30z m200 0 l0 -30 -90 0
-90 0 0 30 0 30 90 0 90 0 0 -30z m290 0 l0 -30 -85 0 -85 0 0 30 0 30 85 0
85 0 0 -30z m225 20 c3 -6 3 -19 0 -30 -6 -18 -15 -20 -106 -20 -103 0 -120 7
-105 45 4 12 26 15 105 15 56 0 103 -4 106 -10z m-715 -97 c0 -14 -6 -23 -15
-23 -8 0 -15 5 -15 12 0 9 -3 9 -12 0 -15 -15 -144 -16 -153 -2 -4 6 -4 17 -1
25 4 12 25 15 101 13 92 -2 95 -3 95 -25z m200 3 c0 -22 -2 -23 -90 -23 -88
-1 -90 0 -90 23 0 24 2 24 90 24 88 0 90 -1 90 -24z m235 13 c6 0 20 3 33 6
19 6 22 4 22 -17 0 -24 -2 -24 -85 -24 -84 -1 -85 0 -85 24 0 24 2 24 53 18
28 -4 57 -7 62 -7z m280 -14 c0 -19 -7 -20 -105 -20 -102 0 -105 1 -108 23 -3
23 -3 23 105 20 100 -3 108 -4 108 -23z m83 -46 c3 -29 -12 -54 -27 -45 -12 8
-15 59 -4 70 12 12 28 0 31 -25z m1130 -11 c-4 -46 -28 -49 -28 -4 0 26 4 36
16 36 11 0 14 -8 12 -32z m-1928 -10 l0 -28 -94 0 c-98 0 -112 6 -101 40 6 18
14 19 101 17 l94 -2 0 -27z m364 16 c10 -27 7 -44 -9 -44 -10 0 -15 10 -15 30
0 32 14 40 24 14z m124 -17 c3 -22 -1 -27 -17 -27 -15 0 -21 6 -21 23 0 46 33
49 38 4z m227 13 c11 -35 -3 -40 -106 -40 -80 0 -101 3 -105 15 -13 34 15 45
112 45 84 0 93 -2 99 -20z m-665 -2 c0 -9 3 -9 12 0 15 15 108 16 108 1 0 -8
5 -8 15 1 13 11 15 8 15 -14 0 -24 -3 -26 -44 -26 -26 0 -48 6 -56 15 -7 8
-18 15 -24 14 -7 0 -6 -2 2 -6 24 -10 11 -23 -23 -23 -31 0 -35 3 -35 25 0 16
6 25 15 25 8 0 15 -5 15 -12z m380 -9 c0 -5 -4 -9 -10 -9 -5 0 -10 7 -10 16 0
8 5 12 10 9 6 -3 10 -10 10 -16z m-30 -19 c0 -5 -4 -10 -10 -10 -5 0 -10 5
-10 10 0 6 5 10 10 10 6 0 10 -4 10 -10z m-397 -42 c4 -9 8 -10 14 -2 5 6 43
10 95 10 l88 -1 0 -27 0 -28 -194 0 c-120 0 -197 4 -201 10 -3 6 -3 19 0 30 6
18 15 20 100 20 65 0 95 -4 98 -12z m485 -17 c-3 -25 -5 -26 -85 -29 -81 -3
-83 -2 -83 21 0 13 2 26 5 29 3 3 42 6 86 6 l80 0 -3 -27z m227 9 c3 -11 3
-24 0 -30 -7 -11 -173 -14 -199 -4 -16 6 -22 35 -9 47 3 4 50 7 104 7 89 0 98
-2 104 -20z m-515 -80 l0 -30 -194 0 c-163 0 -195 2 -200 15 -3 8 -3 22 0 30
5 13 37 15 200 15 l194 0 0 -30z m514 15 c3 -8 3 -22 0 -30 -5 -13 -37 -15
-200 -15 l-194 0 0 30 0 30 194 0 c163 0 195 -2 200 -15z m-496 -85 c8 -13 23
-20 42 -20 19 0 34 7 42 20 12 19 24 20 215 20 l203 0 0 -184 c0 -101 -3 -191
-6 -200 -5 -13 -60 -15 -454 -15 -394 0 -449 2 -454 15 -3 9 -6 99 -6 200 l0
184 203 0 c191 0 203 -1 215 -20z m280 -427 l-3 -38 -235 0 -235 0 -3 38 -3
37 241 0 241 0 -3 -37z m-4148 -448 l0 -395 -173 0 -172 0 -85 85 c-47 47 -87
85 -91 85 -15 0 -61 -85 -67 -123 l-8 -42 -224 0 -225 0 -2 380 c-2 209 -1
386 2 393 3 9 118 12 525 12 l520 0 0 -395z m1100 25 l0 -370 -178 0 -178 0
-83 85 c-46 47 -86 85 -90 85 -13 0 -71 -118 -71 -144 l0 -26 -200 0 -200 0 0
363 c0 200 3 367 7 370 3 4 228 7 500 7 l493 0 0 -370z m389 198 c-1 -82 -6
-148 -10 -148 -5 0 -9 73 -9 163 0 111 3 157 10 147 6 -9 10 -78 9 -162z m86
150 c3 -13 4 -77 3 -143 l-3 -120 -25 0 -25 0 -3 129 c-1 72 0 136 2 143 9 22
45 15 51 -9z m70 -123 l0 -140 -27 -3 -28 -3 0 146 0 146 28 -3 27 -3 0 -140z
m65 -1 c0 -145 0 -145 -22 -142 -22 3 -23 7 -26 132 -1 72 0 136 2 143 3 7 15
13 26 13 19 0 20 -6 20 -146z m75 1 l0 -140 -27 -3 -28 -3 0 146 0 146 28 -3
27 -3 0 -140z m65 0 l0 -145 -25 0 -25 0 0 145 0 145 25 0 25 0 0 -145z m70
-1 l0 -145 -27 3 -28 3 -3 120 c-3 147 0 165 33 165 l25 0 0 -146z m75 124 c3
-13 4 -77 3 -143 l-3 -120 -27 -3 -28 -3 0 145 0 146 25 0 c17 0 26 -7 30 -22z
m65 -123 l0 -145 -25 0 -25 0 0 145 0 145 25 0 25 0 0 -145z m75 123 c3 -13 4
-77 3 -143 l-3 -120 -30 0 -30 0 -3 120 c-3 147 0 165 33 165 17 0 26 -7 30
-22z m60 -123 c0 -138 0 -140 -22 -143 -23 -3 -23 -3 -23 143 0 146 0 146 23
143 22 -3 22 -5 22 -143z m1105 -240 l0 -385 -349 0 -349 0 -10 44 c-5 25 -22
66 -37 91 l-27 47 -92 -91 c-60 -60 -99 -91 -114 -91 l-22 0 0 378 c0 208 3
382 7 385 3 4 228 7 500 7 l493 0 0 -385z m1115 363 c3 -13 4 -185 3 -383 l-3
-360 -195 -3 -195 -2 -85 85 c-46 47 -89 85 -95 85 -20 0 -75 -106 -75 -145
l0 -25 -182 2 -183 3 -3 360 c-1 198 0 370 3 383 l5 22 500 0 500 0 5 -22z
m1103 -365 l2 -383 -190 0 -190 0 0 29 c0 17 -4 33 -10 36 -5 3 -10 14 -10 24
0 10 -9 28 -20 41 -11 13 -20 27 -20 32 0 21 -28 1 -108 -77 l-86 -85 -183 0
-183 0 0 385 0 385 498 -2 497 -3 3 -382z m2200 -105 c2 -544 -6 -489 76 -503
47 -8 103 -34 110 -51 3 -8 -33 -48 -87 -96 l-92 -83 -5 -685 -5 -685 -497 -3
-498 -2 -2 622 -3 623 -22 3 c-21 3 -23 8 -23 71 l0 68 -57 6 c-62 5 -129 32
-137 54 -6 14 155 175 180 181 10 3 14 19 14 58 0 51 1 54 25 54 l25 0 0 430
0 430 498 -2 497 -3 3 -487z m392 207 l0 -286 -22 -9 -23 -9 23 0 c18 -1 22
-7 22 -30 l0 -29 -145 -1 -145 -1 0 325 0 325 145 0 145 0 0 -285z m78 133 l3
-148 -26 0 -25 0 0 151 c0 150 0 150 23 147 22 -3 22 -6 25 -150z m62 2 l0
-150 -25 0 -25 0 0 150 0 150 25 0 25 0 0 -150z m70 0 l0 -150 -30 0 -30 0 0
134 c0 74 3 141 6 150 3 9 17 16 30 16 l24 0 0 -150z m70 0 l0 -150 -25 0 -25
0 0 150 0 150 25 0 25 0 0 -150z m70 0 l0 -150 -25 0 -25 0 0 150 0 150 25 0
25 0 0 -150z m75 128 c3 -13 4 -79 3 -148 l-3 -125 -30 0 -30 0 -3 125 c-3
152 0 170 33 170 17 0 26 -7 30 -22z m330 -303 l0 -320 -157 -3 -157 -3 0 326
0 326 157 -3 157 -3 0 -320z m102 -217 c-1 -90 -3 -17 -3 162 0 179 2 252 3
163 2 -90 2 -236 0 -325z m-49 159 c2 -262 2 -267 -18 -267 -20 0 -20 6 -20
263 0 145 3 267 7 271 24 23 28 -14 31 -267z m-10061 -110 c-1 -67 -3 -9 -3
128 0 138 2 192 3 122 2 -71 2 -183 0 -250z m81 126 l-3 -248 -24 -3 c-13 -2
-28 2 -32 10 -10 15 -12 472 -2 481 3 4 19 7 35 7 l28 0 -2 -247z m9999 -156
c-1 -73 -3 -10 -3 138 0 149 2 208 3 132 2 -76 2 -198 0 -270z m-7374 216 c-7
-2 -19 -2 -25 0 -7 3 -2 5 12 5 14 0 19 -2 13 -5z m75 0 c-10 -2 -26 -2 -35 0
-10 3 -2 5 17 5 19 0 27 -2 18 -5z m65 0 c-7 -2 -19 -2 -25 0 -7 3 -2 5 12 5
14 0 19 -2 13 -5z m70 0 c-7 -2 -21 -2 -30 0 -10 3 -4 5 12 5 17 0 24 -2 18
-5z m70 0 c-7 -2 -21 -2 -30 0 -10 3 -4 5 12 5 17 0 24 -2 18 -5z m70 0 c-7
-2 -21 -2 -30 0 -10 3 -4 5 12 5 17 0 24 -2 18 -5z m70 0 c-7 -2 -21 -2 -30 0
-10 3 -4 5 12 5 17 0 24 -2 18 -5z m70 0 c-7 -2 -21 -2 -30 0 -10 3 -4 5 12 5
17 0 24 -2 18 -5z m70 0 c-7 -2 -21 -2 -30 0 -10 3 -4 5 12 5 17 0 24 -2 18
-5z m70 0 c-7 -2 -21 -2 -30 0 -10 3 -4 5 12 5 17 0 24 -2 18 -5z m-678 -103
c0 -68 -2 -75 -20 -75 -18 0 -20 8 -23 78 -3 77 -2 78 20 75 22 -3 23 -7 23
-78z m75 6 c0 -78 -7 -92 -40 -81 -17 5 -20 15 -20 65 0 74 6 90 36 90 23 0
24 -3 24 -74z m70 59 c10 -12 9 -20 -4 -40 -20 -31 -21 -61 -1 -69 21 -8 18
-23 -6 -29 -40 -11 -49 2 -49 63 0 32 3 65 6 74 8 20 38 21 54 1z m65 -20 c0
-23 -5 -31 -22 -33 -20 -3 -23 1 -23 33 0 32 3 36 23 33 17 -2 22 -10 22 -33z
m73 -41 c2 -57 0 -73 -13 -77 -28 -12 -60 13 -36 27 5 3 4 25 -1 51 -12 57 -5
77 24 73 21 -3 23 -9 26 -74z m68 52 c3 -13 1 -33 -5 -44 -7 -13 -7 -31 -1
-51 7 -25 6 -33 -6 -38 -32 -12 -44 5 -44 66 0 33 3 66 6 75 10 25 43 19 50
-8z m72 -48 c2 -38 -1 -68 -6 -68 -12 0 -52 83 -52 107 0 26 10 34 35 31 17
-3 20 -11 23 -70z m65 60 c4 -10 7 -10 18 0 21 19 48 14 54 -10 3 -13 4 -84 3
-158 l-3 -135 -62 -2 -63 -2 0 153 c0 84 3 156 7 159 11 12 41 8 46 -5z m145
-150 l3 -158 -31 0 -30 0 0 161 0 160 28 -3 27 -3 3 -157z m60 -1 l3 -157 -26
0 -25 0 0 153 c0 85 3 157 7 161 4 4 14 5 23 4 13 -3 15 -28 18 -161z m5981
61 c-3 -91 -10 -116 -20 -78 l-7 25 -1 -26 c-1 -15 5 -29 14 -33 8 -3 15 -10
15 -15 0 -13 -27 -22 -45 -15 -12 5 -15 24 -15 84 0 70 2 79 20 85 13 4 20 14
19 28 -1 17 -2 18 -6 5 -5 -21 -33 -24 -33 -4 0 14 17 22 48 25 11 1 13 -18
11 -81z m59 59 c3 -14 -1 -18 -20 -15 -12 2 -24 11 -26 21 -3 14 1 18 20 15
12 -2 24 -11 26 -21z m67 -19 c11 -74 2 -182 -15 -185 -26 -5 -45 13 -32 29 7
9 8 26 2 53 -15 64 -13 85 9 85 11 0 23 5 26 10 3 6 -1 10 -9 10 -18 0 -29 16
-21 30 15 24 34 8 40 -32z m65 22 c0 -11 -7 -20 -15 -20 -8 0 -15 9 -15 20 0
11 7 20 15 20 8 0 15 -9 15 -20z m51 -12 c1 -22 3 -26 6 -13 14 57 23 30 23
-68 0 -59 -4 -107 -8 -107 -5 0 -16 16 -25 35 -19 40 -24 185 -7 185 6 0 11
-15 11 -32z m104 10 c3 -13 4 -79 3 -148 l-3 -125 -30 0 -30 0 -3 125 c-3 152
0 170 33 170 17 0 26 -7 30 -22z m-6878 -60 c-3 -7 -5 -2 -5 12 0 14 2 19 5
13 2 -7 2 -19 0 -25z m6733 -17 c0 -20 -5 -42 -12 -49 -9 -9 -9 -18 1 -38 14
-30 2 -50 -23 -41 -13 5 -16 23 -16 90 l0 84 25 -5 c21 -4 25 -10 25 -41z
m-6662 -7 c-2 -21 -8 -29 -23 -29 -26 0 -31 29 -8 53 22 24 36 13 31 -24z
m6522 6 c0 -36 -2 -40 -25 -40 -22 0 -25 4 -25 40 0 36 3 40 25 40 23 0 25 -4
25 -40z m-6340 -20 c0 -5 -2 -10 -4 -10 -3 0 -8 5 -11 10 -3 6 -1 10 4 10 6 0
11 -4 11 -10z m-462 -72 c-3 -43 -3 -43 -46 -46 -51 -4 -72 10 -72 48 0 37 5
40 67 40 l54 0 -3 -42z m51 23 l-24 -19 23 -24 c25 -28 29 -43 7 -34 -8 3 -15
1 -15 -5 0 -5 7 -12 15 -15 25 -10 17 -34 -10 -34 -24 0 -25 2 -25 75 0 74 0
75 26 75 l26 0 -23 -19z m75 -3 c-17 -19 -17 -21 -1 -15 14 5 17 1 17 -24 0
-17 -6 -32 -15 -35 -8 -4 -15 -10 -15 -15 0 -5 7 -9 15 -9 8 0 15 -7 15 -16 0
-11 -8 -14 -27 -12 -16 2 -27 6 -25 11 1 4 2 36 2 72 0 64 1 65 27 65 26 0 26
0 7 -22z m74 -9 c-9 -27 -8 -33 6 -41 9 -5 14 -14 11 -19 -4 -5 -11 -7 -16 -4
-15 10 -10 -12 6 -25 19 -16 10 -30 -20 -30 -26 0 -41 15 -25 25 8 5 8 11 0
20 -8 10 -8 19 0 34 6 11 8 32 4 46 -5 22 -3 25 19 25 25 0 25 -2 15 -31z m71
10 c-11 -21 -8 -61 6 -106 6 -20 4 -23 -20 -23 -25 0 -27 3 -21 28 8 32 8 36
3 85 -4 34 -2 37 20 37 21 0 22 -2 12 -21z m79 -54 l3 -75 -30 0 c-33 0 -43
23 -16 34 21 8 20 74 -2 98 -15 17 -15 18 13 18 l29 0 3 -75z m54 63 c-6 -7
-15 -29 -20 -48 l-10 -35 -1 48 c-1 42 1 47 20 47 16 0 19 -3 11 -12z m6396
-34 c-4 -35 -43 -43 -43 -9 0 11 6 19 13 18 6 -2 12 7 12 19 0 16 3 19 11 11
6 -6 9 -23 7 -39z m-6308 -39 l0 -65 -30 0 c-20 0 -30 5 -30 15 0 8 4 15 9 15
5 0 14 23 21 50 7 28 16 50 21 50 5 0 9 -29 9 -65z m-420 46 c0 -6 -4 -13 -10
-16 -5 -3 -10 1 -10 9 0 9 5 16 10 16 6 0 10 -4 10 -9z m227 -48 c-3 -10 -5
-2 -5 17 0 19 2 27 5 18 2 -10 2 -26 0 -35z m117 -55 c-6 -9 -38 -11 -47 -2
-3 4 4 20 16 36 l22 29 7 -27 c4 -15 5 -31 2 -36z m6324 20 c3 -25 0 -28 -27
-28 -28 0 -31 3 -31 31 0 27 3 30 28 27 21 -2 28 -9 30 -30z m62 2 c0 -25 -4
-30 -25 -30 -21 0 -25 5 -25 30 0 25 4 30 25 30 21 0 25 -5 25 -30z m70 0 c0
-25 -4 -30 -25 -30 -14 0 -28 7 -31 15 -10 25 4 45 31 45 21 0 25 -5 25 -30z
m70 19 c0 -20 -21 -49 -35 -49 -10 0 -15 10 -15 30 0 25 4 30 25 30 14 0 25
-5 25 -11z m70 -19 c0 -23 -4 -30 -20 -30 -20 0 -20 1 -5 30 9 17 18 30 20 30
3 0 5 -13 5 -30z m-7808 -57 c44 -43 84 -88 89 -100 8 -23 11 -23 183 -23
l175 0 3 -42 3 -43 70 -3 c66 -2 114 -17 159 -48 18 -12 14 -19 -64 -99 -75
-77 -87 -85 -121 -85 -24 0 -39 -5 -43 -16 -3 -9 -6 -63 -6 -120 l0 -104 -180
0 -180 0 0 -52 c0 -52 -31 -127 -56 -135 -10 -3 -167 152 -175 173 -4 12 -336
19 -686 16 l-173 -2 0 -37 c0 -42 -29 -120 -47 -127 -6 -3 -48 33 -92 80 l-81
84 -228 0 c-164 0 -231 3 -240 12 -9 9 -12 79 -12 255 l0 243 219 0 c121 0
226 3 235 6 12 4 16 20 16 56 0 45 16 93 43 126 8 10 30 -7 99 -75 48 -48 88
-93 88 -100 0 -10 35 -13 148 -13 82 0 183 -3 225 -6 l77 -7 0 32 0 31 205 0
205 0 0 49 c0 34 8 65 26 100 15 28 29 51 32 51 2 0 40 -35 84 -77z m798 52
c0 -24 -3 -25 -60 -25 -52 0 -60 3 -60 18 0 28 9 32 67 32 50 0 53 -1 53 -25z
m6530 -51 c0 -12 -134 -144 -147 -144 -10 0 -13 19 -13 75 l0 75 80 0 c44 0
80 -3 80 -6z m130 -19 c0 -14 7 -28 15 -31 10 -4 15 -20 15 -50 0 -37 -3 -44
-20 -44 -12 0 -20 7 -20 18 0 20 -20 77 -38 110 -12 21 -11 22 18 22 25 0 30
-4 30 -25z m-50 -25 c12 -24 20 -59 20 -90 0 -49 1 -50 30 -50 30 0 30 -1 30
-55 0 -38 4 -55 13 -55 7 0 52 -40 100 -88 82 -82 87 -89 70 -103 -40 -32 -70
-41 -145 -46 l-78 -6 0 -53 c0 -47 2 -54 20 -54 19 0 20 -7 20 -195 0 -188 -1
-195 -20 -195 -17 0 -20 -7 -20 -41 0 -39 -44 -149 -59 -149 -5 0 -49 42 -99
94 -49 51 -97 96 -106 99 -14 6 -16 30 -16 181 l0 175 -27 3 c-17 2 -29 10
-31 20 -3 15 2 17 26 12 20 -4 31 -2 35 8 4 11 -1 14 -19 10 -22 -4 -24 -1
-24 33 0 36 1 37 31 31 25 -5 28 -3 17 8 -7 7 -19 15 -27 17 -8 3 17 33 65 78
l77 74 -34 28 c-18 15 -52 33 -74 39 -65 19 -70 24 -73 70 -4 48 7 60 50 60
21 0 47 20 114 90 48 50 93 90 100 90 8 0 23 -18 34 -40z m808 -489 c1 -344
-1 -477 -9 -487 -10 -12 -71 -14 -338 -12 l-326 3 -3 235 c-3 258 -2 260 58
260 14 0 48 14 74 31 l49 30 -92 93 -91 93 0 117 0 116 338 -2 337 -3 3 -474z
m-4278 119 l0 -270 -30 0 -30 0 0 263 c0 145 3 267 7 270 3 4 17 7 30 7 l23 0
0 -270z m-72 28 c-2 -166 -6 -222 -15 -226 -9 -2 -13 9 -13 36 l0 39 -58 6
c-58 6 -111 27 -131 51 -9 10 5 29 63 84 41 39 86 78 100 87 23 16 26 24 26
81 0 51 3 64 15 64 13 0 15 -29 13 -222z m3622 -183 c0 -8 -7 -15 -15 -15 -8
0 -15 7 -15 15 0 8 7 15 15 15 8 0 15 -7 15 -15z m40 6 c0 -6 -4 -13 -10 -16
-5 -3 -10 1 -10 9 0 9 5 16 10 16 6 0 10 -4 10 -9z m-40 -46 c0 -8 -7 -15 -15
-15 -16 0 -20 12 -8 23 11 12 23 8 23 -8z m40 -6 c0 -5 -4 -9 -10 -9 -5 0 -10
7 -10 16 0 8 5 12 10 9 6 -3 10 -10 10 -16z m-1 -240 c-1 -169 -3 -199 -16
-199 -10 0 -13 6 -9 16 3 9 6 101 6 205 0 130 3 188 10 184 7 -4 10 -77 9
-206z m-5830 165 c13 -9 56 -50 96 -90 40 -41 76 -74 82 -74 14 0 53 75 66
128 l12 47 348 3 347 2 0 -625 0 -625 -497 2 -498 3 -3 610 c-1 336 0 616 3
623 6 16 16 15 44 -4z m1409 4 c7 -7 12 -22 12 -34 0 -13 5 -26 10 -29 6 -3
10 -12 10 -20 0 -15 42 -84 51 -85 4 0 40 34 80 76 41 42 86 82 101 90 20 10
72 14 207 14 179 0 181 0 186 -22 3 -13 4 -293 3 -623 l-3 -600 -505 0 -505 0
-3 600 c-1 330 0 610 3 623 5 22 7 22 173 22 117 0 172 -4 180 -12z m-4246
-125 c68 -68 80 -76 92 -63 23 24 56 93 56 117 0 23 0 23 170 23 l170 0 -2
-592 -3 -593 -500 -3 c-275 -1 -510 0 -522 3 -22 5 -23 10 -23 94 0 103 -2
101 101 101 l68 0 3 123 c2 67 2 182 0 255 l-3 132 -69 0 c-109 0 -100 -21
-100 239 0 125 3 231 7 234 3 4 112 7 242 7 l236 0 77 -77z m1081 -10 l88 -88
25 30 c13 17 31 56 40 88 l17 57 168 0 169 0 0 -595 0 -595 -497 2 -498 3 -3
593 -2 592 202 0 203 0 88 -87z m4384 -5 c51 -51 94 -90 97 -87 19 20 66 126
66 149 l0 30 190 0 190 0 -2 -592 -3 -593 -497 -3 -498 -2 0 595 0 595 182 0
183 0 92 -92z m3881 -250 c9 -9 12 -117 12 -425 l0 -413 -22 -5 c-13 -3 -248
-4 -523 -3 l-500 3 -3 423 c-2 338 0 422 11 422 7 0 53 -40 102 -90 49 -49 95
-90 101 -90 14 0 74 123 74 153 0 13 3 27 7 30 3 4 169 7 368 7 267 0 364 -3
373 -12z m112 -4438 l0 -2370 -5060 0 -5060 0 2 647 3 648 650 2 650 2 0 781
0 781 -650 2 -650 2 -3 938 -2 937 5060 0 5060 0 0 -2370z m-10030 205 l0
-275 -45 0 -45 0 0 275 0 275 45 0 45 0 0 -275z m1200 -299 c0 -373 -4 -577
-10 -581 -6 -4 -10 40 -10 124 0 95 -3 131 -12 131 -9 0 -9 3 0 12 9 9 12 123
12 450 0 285 3 438 10 438 7 0 10 -198 10 -574z m-35 531 c5 -20 -1 -710 -7
-834 -3 -55 -10 -65 -26 -37 -8 15 -12 15 -39 0 -17 -8 -33 -12 -37 -9 -13 13
-6 169 8 188 14 19 15 19 34 2 10 -9 25 -36 32 -60 9 -29 15 -36 18 -23 8 37
-53 129 -79 121 -15 -5 -18 2 -22 37 l-4 43 -1 -50 c-2 -53 -23 -95 -48 -95
-8 0 -14 -6 -14 -14 0 -18 -85 -96 -105 -96 -16 0 -20 -117 -15 -473 l2 -167
-424 2 -423 3 -2 729 c-2 521 1 733 8 743 9 10 118 13 575 13 l564 0 5 -23z
m-1248 -759 c-1 -46 -3 -11 -3 77 0 88 2 125 3 83 2 -42 2 -114 0 -160z m83
77 l0 -155 -35 0 -35 0 0 155 0 155 35 0 35 0 0 -155z m1040 -114 c0 -93 -12
-109 -52 -69 -12 12 -23 18 -25 12 -9 -25 -22 -36 -37 -31 -9 4 -16 13 -16 20
0 24 48 67 75 67 14 0 25 5 25 10 0 6 -5 10 -10 10 -7 0 -7 6 0 20 6 11 17 20
25 20 12 0 15 -14 15 -59z m-153 -253 c-1 -40 -3 -8 -3 72 0 80 2 112 3 73 2
-40 2 -106 0 -145z m-887 -118 l0 -310 440 0 440 0 2 133 2 132 3 -132 4 -133
144 0 145 0 0 125 c0 77 4 125 10 125 6 0 10 -52 10 -135 l0 -135 -645 0 -645
0 0 320 0 320 45 0 45 0 0 -310z m995 257 c17 0 24 -2 17 -4 -10 -4 -10 -8 -1
-19 10 -12 2 -14 -45 -14 -48 0 -56 3 -56 18 0 26 11 34 35 26 11 -4 34 -7 50
-7z m172 -2 c7 -24 -15 -36 -58 -33 l-44 3 35 23 c35 22 61 25 67 7z m-2 -70
c0 -19 -8 -20 -127 -23 -121 -2 -128 -2 -128 17 0 28 12 30 140 28 108 -2 115
-3 115 -22z m5 -65 c0 -19 -7 -20 -130 -20 -123 0 -130 1 -130 20 0 19 7 20
130 20 123 0 130 -1 130 -20z m-120 -51 c0 -6 -9 -13 -19 -16 -12 -3 -23 -17
-26 -34 -9 -40 -25 -46 -25 -9 0 23 -6 33 -24 40 -49 18 -39 30 28 30 41 0 66
-4 66 -11z m116 0 c12 -20 -12 -30 -54 -23 -59 9 -57 34 2 34 25 0 48 -5 52
-11z m-223 -44 c9 0 17 -3 17 -7 0 -5 0 -19 0 -33 0 -17 -4 -23 -14 -19 -8 3
-17 1 -21 -5 -3 -7 2 -11 14 -11 11 0 23 -5 27 -11 5 -8 10 -6 16 5 6 10 17
14 31 11 25 -6 41 3 50 25 3 9 6 6 6 -10 1 -18 14 -34 52 -58 l50 -33 -3 -87
-3 -87 -125 0 -125 0 -2 175 c-1 96 1 168 5 160 4 -8 15 -15 25 -15z m117 -5
c0 -5 -4 -10 -10 -10 -5 0 -10 -11 -10 -25 0 -16 -6 -25 -15 -25 -20 0 -19 16
3 45 18 26 32 32 32 15z m135 0 c3 -5 1 -10 -4 -10 -6 0 -11 5 -11 10 0 6 2
10 4 10 3 0 8 -4 11 -10z m-77 -22 c-5 -32 -28 -35 -28 -4 0 17 5 26 16 26 10
0 14 -7 12 -22z m46 5 c8 -19 -8 -38 -23 -29 -16 10 -13 46 3 46 8 0 17 -8 20
-17z m-277 -35 c-3 -8 -6 -5 -6 6 -1 11 2 17 5 13 3 -3 4 -12 1 -19z m313 12
c0 -5 -4 -10 -10 -10 -5 0 -10 5 -10 10 0 6 5 10 10 10 6 0 10 -4 10 -10z
m-36 -36 c10 -25 -3 -34 -29 -22 -19 9 -22 14 -14 25 15 18 36 17 43 -3z"/>
<path d="M7650 8415 c-12 -14 -11 -16 12 -10 20 5 27 2 31 -12 4 -12 5 -9 4 7
-2 29 -28 38 -47 15z"/>
<path d="M7720 8420 c0 -5 14 -10 30 -10 17 0 30 5 30 10 0 6 -13 10 -30 10
-16 0 -30 -4 -30 -10z"/>
<path d="M7807 8424 c-13 -14 -7 -22 13 -17 22 6 26 -7 8 -25 -9 -9 -9 -12 0
-12 7 0 12 -7 12 -16 0 -12 -6 -15 -21 -11 -13 3 -19 1 -16 -6 2 -7 12 -12 23
-12 16 0 19 7 19 50 0 37 -4 50 -15 53 -9 1 -19 0 -23 -4z"/>
<path d="M7744 8364 c-6 -19 -8 -37 -4 -39 8 -5 25 64 18 70 -2 2 -8 -12 -14
-31z"/>
<path d="M7656 8342 c-13 -12 -5 -22 19 -22 14 0 25 4 25 9 0 10 -36 21 -44
13z"/>
<path d="M6951 7726 c2 -2 14 -9 26 -15 19 -10 22 -9 17 4 -4 8 -15 15 -27 15
-11 0 -18 -2 -16 -4z"/>
<path d="M7030 7715 c-12 -14 -11 -16 12 -10 20 5 27 2 31 -12 4 -12 5 -9 4 7
-2 29 -28 38 -47 15z"/>
<path d="M7106 7708 c-9 -34 -8 -37 14 -31 16 4 20 0 20 -17 0 -18 -4 -21 -21
-17 -17 5 -18 3 -8 -9 10 -13 14 -12 30 2 25 22 24 39 -3 58 -18 13 -19 16 -6
16 9 0 20 5 23 10 3 6 -5 10 -18 10 -17 0 -27 -7 -31 -22z"/>
<path d="M7182 7718 c-16 -16 -15 -60 1 -82 20 -27 47 -10 47 29 0 60 -20 81
-48 53z m38 -43 c0 -24 -5 -35 -15 -35 -10 0 -15 11 -15 35 0 24 5 35 15 35
10 0 15 -11 15 -35z"/>
<path d="M7271 7716 c-8 -10 -9 -16 -1 -21 5 -3 10 -1 10 6 0 7 8 9 21 6 13
-3 19 -1 16 6 -6 18 -32 20 -46 3z"/>
<path d="M7354 7716 c-3 -8 -4 -31 -2 -52 3 -37 5 -39 41 -42 21 -2 37 1 37 7
0 6 -13 11 -30 11 -43 0 -41 30 3 31 l32 1 -29 7 c-38 8 -47 31 -12 31 13 0
28 5 31 10 4 6 -8 10 -30 10 -21 0 -38 -6 -41 -14z"/>
<path d="M6931 7681 c-1 -27 2 -32 11 -23 8 8 8 17 0 34 -10 22 -11 21 -11
-11z"/>
<path d="M7300 7673 c20 -9 11 -36 -10 -30 -11 3 -20 2 -20 -3 0 -12 25 -19
39 -10 16 9 11 42 -7 46 -7 1 -8 0 -2 -3z"/>
<path d="M6966 7641 c-15 -6 -16 -10 -7 -15 8 -5 20 -2 29 8 17 17 9 19 -22 7z"/>
<path d="M7027 7644 c-3 -4 -4 -11 -1 -15 7 -12 54 -11 54 1 0 6 -4 10 -9 10
-5 0 -16 2 -23 5 -8 3 -17 3 -21 -1z"/>
<path d="M3234 6909 c-5 -9 -2 -10 11 -6 11 5 23 1 32 -10 13 -17 14 -17 11 2
-4 23 -42 33 -54 14z"/>
<path d="M3317 6913 c-9 -8 -9 -56 -1 -77 8 -21 31 -20 42 2 15 27 3 82 -17
82 -10 0 -21 -3 -24 -7z m30 -9 c-3 -3 -12 -4 -19 -1 -8 3 -5 6 6 6 11 1 17
-2 13 -5z m3 -49 c0 -18 -4 -23 -15 -19 -8 4 -15 15 -15 25 0 10 7 19 15 19 9
0 15 -9 15 -25z"/>
<path d="M3408 6914 c17 -8 5 -24 -13 -17 -21 7 -20 -43 0 -64 27 -26 46 -8
43 39 -3 34 -7 43 -23 45 -11 2 -14 0 -7 -3z m20 -56 c-2 -13 -7 -23 -13 -23
-5 0 -11 10 -13 23 -2 15 2 22 13 22 11 0 15 -7 13 -22z"/>
<path d="M3239 6840 c-19 -12 -6 -22 25 -18 25 3 25 4 8 15 -11 6 -24 8 -33 3z"/>
<path d="M7650 6791 c0 -6 7 -8 15 -5 9 4 18 -2 25 -17 l10 -24 -3 25 c-1 17
-9 26 -24 28 -13 2 -23 -1 -23 -7z"/>
<path d="M7721 6796 c12 -10 59 -15 59 -6 0 5 -14 10 -32 10 -17 0 -29 -2 -27
-4z"/>
<path d="M7835 6771 c6 -26 4 -29 -14 -24 -12 3 -21 1 -21 -6 0 -6 9 -11 20
-11 12 0 20 -7 20 -17 1 -17 2 -17 13 -1 17 22 10 88 -10 88 -11 0 -13 -7 -8
-29z"/>
<path d="M7743 6735 c-6 -19 -8 -35 -3 -35 8 0 23 60 17 67 -2 1 -8 -13 -14
-32z"/>
<path d="M7650 6715 c-11 -13 -8 -15 20 -15 19 0 31 1 29 3 -2 1 -11 8 -20 15
-13 10 -19 9 -29 -3z"/>
<path d="M587 6133 c-4 -3 -7 -249 -7 -545 l0 -538 2445 0 2445 0 0 545 0 544
-2438 0 c-1342 1 -2442 -2 -2445 -6z m4873 -537 c0 -468 -2 -525 -16 -530 -20
-8 -4818 -8 -4838 0 -14 5 -16 61 -16 523 0 285 3 521 7 524 3 4 1099 7 2435
7 l2428 0 0 -524z"/>
<path d="M5540 5740 l0 -400 60 0 60 0 0 -145 0 -145 2430 0 2430 0 -2 543 -3
542 -2487 2 -2488 2 0 -399z m4968 -147 l2 -523 -22 -5 c-13 -3 -1098 -4
-2413 -3 l-2390 3 -3 142 -3 142 -62 3 -62 3 -3 383 -2 382 2477 -2 2478 -3 3
-522z"/>
<path d="M919 10963 c-12 -15 -12 -16 5 -10 12 5 23 1 32 -10 11 -15 13 -15
14 -2 0 15 -18 39 -31 39 -4 0 -13 -8 -20 -17z"/>
<path d="M997 10966 c-4 -10 0 -12 14 -9 21 6 25 -7 7 -25 -9 -9 -9 -12 0 -12
7 0 12 -7 12 -16 0 -11 -6 -15 -20 -11 -11 3 -20 1 -20 -4 0 -15 30 -23 42
-11 12 12 15 72 4 90 -10 16 -33 15 -39 -2z"/>
<path d="M1087 10949 c-33 -44 -34 -49 -2 -49 17 0 25 -6 26 -17 0 -15 2 -15
8 2 5 11 6 38 2 60 l-6 40 -28 -36z m23 -20 c0 -5 -7 -9 -15 -9 -9 0 -12 6 -9
15 6 15 24 11 24 -6z"/>
<path d="M917 10894 c-15 -15 -6 -24 23 -24 17 0 30 5 30 10 0 6 -4 10 -9 10
-5 0 -16 2 -23 5 -8 3 -17 2 -21 -1z"/>
<path d="M1907 11184 c-13 -14 -7 -22 12 -17 13 3 21 -1 24 -14 4 -12 5 -9 4
7 -2 24 -26 38 -40 24z"/>
<path d="M1981 11177 c-9 -12 -7 -13 14 -9 26 5 33 -6 14 -25 -8 -8 -8 -13 0
-17 22 -14 11 -28 -16 -21 -23 5 -25 4 -14 -9 10 -12 18 -13 33 -5 15 8 18 19
16 52 -3 45 -25 60 -47 34z"/>
<path d="M2057 11183 c-13 -13 -7 -21 13 -16 15 4 20 0 20 -13 0 -14 3 -15 12
-6 8 8 8 15 -2 27 -13 16 -32 20 -43 8z"/>
<path d="M1906 11102 c-13 -12 -5 -22 19 -22 14 0 25 4 25 9 0 10 -36 21 -44
13z"/>
<path d="M2057 11104 c-14 -14 -7 -24 17 -24 14 0 28 5 31 10 3 6 2 10 -4 10
-5 0 -16 2 -23 5 -8 3 -17 2 -21 -1z"/>
<path d="M3137 11184 c-13 -14 -7 -22 12 -17 13 3 21 -1 24 -14 4 -12 5 -9 4
7 -2 24 -26 38 -40 24z"/>
<path d="M3207 11177 c-4 -10 0 -13 12 -10 14 3 17 -3 18 -32 1 -32 -2 -36
-19 -32 -15 4 -17 3 -8 -9 9 -10 17 -11 30 -4 14 8 18 20 17 53 -2 34 -6 43
-23 45 -12 2 -24 -3 -27 -11z"/>
<path d="M3305 11174 c20 -16 20 -16 -2 -11 -21 5 -23 1 -23 -29 0 -40 26 -57
45 -30 18 24 4 80 -20 84 -20 3 -20 2 0 -14z m15 -54 c0 -11 -7 -20 -15 -20
-8 0 -15 9 -15 20 0 11 7 20 15 20 8 0 15 -9 15 -20z"/>
<path d="M3136 11102 c-13 -12 -5 -22 19 -22 14 0 25 4 25 9 0 10 -36 21 -44
13z"/>
<path d="M4385 11190 c-4 -7 1 -9 18 -5 19 5 26 2 31 -12 4 -15 5 -15 3 2 -2
22 -41 33 -52 15z"/>
<path d="M4466 11192 c-3 -6 3 -8 14 -5 14 4 20 0 20 -11 0 -9 5 -16 11 -16 6
0 9 8 7 18 -4 19 -42 29 -52 14z"/>
<path d="M4574 11175 c5 -19 2 -25 -9 -25 -10 0 -13 5 -9 12 4 7 3 8 -4 4 -19
-12 -14 -36 8 -36 12 0 20 -7 20 -17 0 -15 2 -14 14 3 9 12 11 23 5 29 -5 5
-9 19 -9 32 0 13 -5 23 -11 23 -7 0 -9 -10 -5 -25z"/>
<path d="M4390 11115 c-11 -13 -8 -15 20 -15 19 0 31 1 29 3 -2 1 -11 8 -20
15 -13 10 -19 9 -29 -3z"/>
<path d="M4460 11110 c0 -5 15 -10 33 -9 27 0 29 2 12 9 -28 12 -45 12 -45 0z"/>
<path d="M5434 11189 c-5 -9 -2 -10 11 -6 11 5 23 1 32 -10 13 -17 14 -17 11
2 -4 23 -42 33 -54 14z"/>
<path d="M5510 11191 c0 -5 9 -7 19 -4 13 3 21 -1 24 -14 4 -15 5 -14 6 5 1
17 -4 22 -24 22 -14 0 -25 -4 -25 -9z"/>
<path d="M5585 11190 c-5 -9 -1 -10 13 -6 14 5 24 1 32 -11 10 -17 11 -17 8 2
-4 22 -42 33 -53 15z"/>
<path d="M5514 11119 c-9 -15 1 -21 26 -17 21 3 21 3 1 15 -14 9 -22 9 -27 2z"/>
<path d="M5590 11115 c-11 -13 -8 -15 20 -15 19 0 31 1 29 3 -2 1 -11 8 -20
15 -13 10 -19 9 -29 -3z"/>
<path d="M5430 11110 c0 -5 15 -10 33 -10 24 0 28 3 17 10 -20 13 -50 13 -50
0z"/>
<path d="M6652 11198 c-14 -14 -16 -67 -3 -86 5 -8 17 -12 27 -10 28 5 33 83
6 97 -13 7 -22 7 -30 -1z m38 -43 c0 -24 -5 -35 -15 -35 -10 0 -15 11 -15 35
0 24 5 35 15 35 10 0 15 -11 15 -35z"/>
<path d="M6495 11190 c-5 -9 -1 -10 13 -6 14 5 24 1 32 -11 10 -17 11 -17 8 2
-4 22 -42 33 -53 15z"/>
<path d="M6576 11192 c-3 -6 3 -8 14 -5 14 4 20 0 20 -11 0 -9 5 -16 11 -16 6
0 9 8 7 18 -4 19 -42 29 -52 14z"/>
<path d="M6500 11115 c-11 -13 -8 -15 20 -15 19 0 31 1 29 3 -2 1 -11 8 -20
15 -13 10 -19 9 -29 -3z"/>
<path d="M6574 11118 c-9 -14 1 -20 30 -16 l26 3 -25 12 c-16 7 -27 8 -31 1z"/>
<path d="M8757 10334 c-13 -13 -7 -23 9 -17 11 4 22 -1 31 -13 14 -18 14 -18
11 6 -3 25 -35 40 -51 24z"/>
<path d="M8856 10332 c-3 -5 -1 -30 3 -58 l9 -49 1 58 c1 55 -2 66 -13 49z"/>
<path d="M8913 10313 c-13 -28 -8 -47 6 -24 12 18 31 5 31 -21 0 -17 -4 -19
-27 -13 -23 5 -25 4 -14 -9 10 -12 18 -13 32 -5 23 12 25 57 3 66 -15 6 -15 8
2 20 17 12 17 13 -2 13 -11 0 -24 -11 -31 -27z"/>
<path d="M8755 10250 c-8 -14 21 -24 43 -15 16 7 15 8 -3 15 -27 12 -33 12
-40 0z"/>
<path d="M2799 9964 c-12 -15 -11 -16 8 -10 15 5 25 2 32 -11 8 -15 10 -15 11
-2 0 15 -18 39 -31 39 -4 0 -13 -7 -20 -16z"/>
<path d="M2880 9966 c-9 -12 -7 -13 9 -9 15 4 21 1 21 -11 0 -9 -5 -16 -12
-16 -9 0 -9 -3 0 -12 7 -7 12 -18 12 -25 0 -11 -5 -11 -20 -3 -14 8 -20 8 -20
0 0 -16 30 -24 43 -11 19 19 16 81 -4 91 -12 7 -20 5 -29 -4z"/>
<path d="M2952 9968 c-14 -14 -16 -67 -3 -86 5 -8 17 -12 27 -10 33 6 28 108
-5 108 -4 0 -12 -5 -19 -12z m38 -43 c0 -24 -5 -35 -15 -35 -10 0 -15 11 -15
35 0 24 5 35 15 35 10 0 15 -11 15 -35z"/>
<path d="M2800 9890 c-21 -13 -7 -22 27 -18 27 3 27 4 7 15 -12 7 -26 8 -34 3z"/>
<path d="M5450 10325 c33 -19 46 -19 30 0 -7 8 -22 15 -34 15 -20 -1 -20 -2 4
-15z"/>
<path d="M5517 10334 c-13 -14 -7 -22 12 -17 13 3 21 -1 24 -14 4 -12 5 -9 4
7 -2 24 -26 38 -40 24z"/>
<path d="M5587 10326 c-4 -11 -1 -13 10 -9 9 4 22 -1 30 -13 14 -18 14 -18 11
6 -3 29 -42 41 -51 16z"/>
<path d="M5666 10318 c-9 -35 -7 -41 7 -29 17 13 27 5 27 -22 0 -15 -5 -18
-21 -14 -16 4 -19 3 -11 -5 14 -14 40 -4 49 18 4 11 -2 24 -16 35 l-23 19 23
9 24 10 -26 0 c-19 1 -28 -5 -33 -21z"/>
<path d="M5415 10308 c-4 -10 -4 -26 0 -35 8 -17 8 -17 12 0 3 9 3 25 0 35 -4
16 -4 16 -12 0z"/>
<path d="M5450 10251 c-20 -6 -22 -8 -8 -13 9 -4 22 -1 28 8 7 8 11 14 9 13
-2 -1 -15 -4 -29 -8z"/>
<path d="M5516 10252 c-13 -12 -5 -22 19 -22 14 0 25 4 25 9 0 10 -36 21 -44
13z"/>
<path d="M5585 10250 c-8 -14 21 -24 43 -15 16 7 15 8 -3 15 -27 12 -33 12
-40 0z"/>
<path d="M889 9523 c-12 -15 -12 -16 5 -10 12 5 23 1 32 -10 11 -15 13 -15 14
-2 0 15 -18 39 -31 39 -4 0 -13 -8 -20 -17z"/>
<path d="M970 9525 c-9 -11 -7 -12 9 -8 15 4 21 1 21 -11 0 -9 -5 -16 -11 -16
-8 0 -8 -4 1 -15 17 -20 3 -40 -18 -23 -13 11 -14 11 -10 -2 2 -8 13 -15 24
-15 16 0 20 8 22 46 3 49 -15 71 -38 44z"/>
<path d="M1049 9535 c-1 -3 -2 -9 -3 -14 0 -5 -4 -13 -8 -17 -16 -15 -7 -24
17 -18 21 5 25 3 26 -17 1 -19 2 -20 6 -6 3 10 -3 27 -13 38 -16 17 -16 19 -1
19 10 0 17 5 17 10 0 10 -39 15 -41 5z"/>
<path d="M1042 9444 c10 -10 20 -16 22 -13 3 3 -5 11 -17 18 -21 13 -21 12 -5
-5z"/>
<path d="M880 9440 c0 -5 15 -10 33 -10 24 0 28 3 17 10 -20 13 -50 13 -50 0z"/>
<path d="M4697 9483 c-13 -13 -7 -21 13 -16 15 4 20 0 20 -13 0 -14 3 -15 12
-6 8 8 8 15 -2 27 -13 16 -32 20 -43 8z"/>
<path d="M4770 9475 c-12 -14 -11 -16 12 -10 20 5 27 2 31 -12 4 -12 5 -9 4 7
-2 29 -28 38 -47 15z"/>
<path d="M4866 9482 c-3 -5 -1 -30 3 -58 l9 -49 1 58 c1 55 -2 66 -13 49z"/>
<path d="M4696 9402 c-13 -12 -5 -22 19 -22 14 0 25 4 25 9 0 10 -36 21 -44
13z"/>
<path d="M4767 9404 c-3 -4 -4 -11 -1 -15 7 -12 54 -11 54 1 0 6 -4 10 -9 10
-5 0 -16 2 -23 5 -8 3 -17 3 -21 -1z"/>
<path d="M4970 7724 c-14 -35 -13 -35 15 -28 20 5 24 3 19 -9 -3 -8 -1 -18 5
-22 7 -3 11 2 11 15 0 11 -7 23 -15 26 -20 8 -19 24 1 24 8 0 12 5 9 10 -11
19 -35 10 -45 -16z"/>
<path d="M4810 7736 c0 -2 11 -6 25 -8 13 -3 22 -1 19 3 -5 9 -44 13 -44 5z"/>
<path d="M4885 7730 c-4 -7 1 -9 18 -5 19 5 26 2 31 -12 4 -15 5 -15 3 2 -2
22 -41 33 -52 15z"/>
<path d="M5036 7716 c-9 -35 10 -78 32 -74 13 3 17 13 17 48 0 38 -3 45 -21
48 -16 2 -23 -4 -28 -22z m44 -21 c0 -24 -5 -35 -15 -35 -10 0 -15 11 -15 35
0 24 5 35 15 35 10 0 15 -11 15 -35z"/>
<path d="M5131 7718 c1 -19 2 -20 6 -5 3 13 11 17 24 14 10 -3 19 -1 19 4 0 5
-11 9 -25 9 -20 0 -25 -5 -24 -22z"/>
<path d="M4790 7696 c0 -14 5 -28 10 -31 6 -4 10 7 10 24 0 17 -4 31 -10 31
-5 0 -10 -11 -10 -24z"/>
<path d="M5158 7693 c21 -8 14 -36 -8 -30 -24 6 -27 -11 -4 -20 8 -3 23 1 31
10 13 13 14 19 3 31 -7 9 -18 16 -24 15 -7 0 -6 -2 2 -6z"/>
<path d="M4830 7653 c-24 -12 -24 -13 -3 -13 12 0 25 5 28 11 11 16 2 17 -25
2z"/>
<path d="M4890 7655 c-11 -13 -8 -15 20 -15 19 0 31 1 29 3 -2 1 -11 8 -20 15
-13 10 -19 9 -29 -3z"/>
<path d="M4960 7660 c0 -6 7 -13 15 -17 24 -9 27 1 5 15 -13 8 -20 8 -20 2z"/>
<path d="M4117 9484 c-13 -13 -7 -24 8 -17 9 3 22 -2 31 -13 14 -18 14 -18 12
6 -3 25 -35 40 -51 24z"/>
<path d="M4197 9484 c-13 -14 -7 -22 12 -17 13 3 21 -1 24 -14 4 -12 5 -9 4 7
-2 24 -26 38 -40 24z"/>
<path d="M4271 9477 c-9 -12 -7 -13 14 -9 26 5 33 -6 14 -25 -8 -8 -8 -13 0
-17 22 -14 11 -28 -16 -21 -21 5 -25 4 -17 -5 7 -7 20 -10 30 -8 15 3 19 12
19 48 0 48 -20 65 -44 37z"/>
<path d="M4115 9400 c-8 -14 21 -24 43 -15 16 7 15 8 -3 15 -27 12 -33 12 -40
0z"/>
<path d="M4196 9402 c-13 -12 -5 -22 19 -22 14 0 25 4 25 9 0 10 -36 21 -44
13z"/>
<path d="M6517 9483 c-13 -13 -7 -21 13 -16 15 4 20 0 20 -13 0 -14 3 -15 12
-6 8 8 8 15 -2 27 -13 16 -32 20 -43 8z"/>
<path d="M6608 9479 c-6 -19 4 -89 13 -89 12 0 12 87 0 94 -5 4 -11 1 -13 -5z"/>
<path d="M6670 9480 c20 -13 50 -13 50 0 0 6 -15 10 -32 10 -25 0 -29 -3 -18
-10z"/>
<path d="M6687 9443 c-2 -10 -8 -26 -12 -35 -4 -10 -3 -18 3 -18 5 0 12 14 16
32 7 34 2 50 -7 21z"/>
<path d="M6516 9402 c-13 -12 -5 -22 19 -22 14 0 25 4 25 9 0 10 -36 21 -44
13z"/>
<path d="M1720 9325 c-12 -14 -11 -16 12 -10 20 5 27 2 31 -12 4 -12 5 -9 4 7
-2 29 -28 38 -47 15z"/>
<path d="M1801 9326 c-10 -12 -9 -13 7 -9 17 4 20 0 20 -32 0 -32 -3 -36 -21
-31 -19 5 -19 4 -4 -11 22 -23 46 -2 45 40 -1 50 -24 71 -47 43z"/>
<path d="M1877 9334 c-13 -14 -7 -22 13 -17 22 6 26 -7 8 -25 -9 -9 -9 -12 0
-12 7 0 12 -7 12 -16 0 -12 -6 -15 -21 -11 -13 3 -19 1 -16 -6 2 -7 12 -12 23
-12 16 0 19 7 19 50 0 37 -4 50 -15 53 -9 1 -19 0 -23 -4z"/>
<path d="M1726 9252 c-13 -12 -5 -22 19 -22 14 0 25 4 25 9 0 10 -36 21 -44
13z"/>
<path d="M2570 9325 c-12 -14 -11 -16 12 -10 20 5 27 2 31 -12 4 -12 5 -9 4 7
-2 29 -28 38 -47 15z"/>
<path d="M2651 9326 c-10 -12 -9 -13 7 -9 17 4 20 0 20 -32 0 -32 -3 -36 -21
-31 -19 5 -19 4 -4 -11 22 -23 46 -2 45 40 -1 50 -24 71 -47 43z"/>
<path d="M2744 9328 c-10 -16 -5 -80 7 -92 5 -6 9 12 9 47 0 58 -3 66 -16 45z"/>
<path d="M2576 9252 c-13 -12 -5 -22 19 -22 14 0 25 4 25 9 0 10 -36 21 -44
13z"/>
<path d="M1005 8400 c-5 -8 -1 -10 12 -6 14 5 23 0 31 -16 l12 -23 -3 25 c-2
27 -39 41 -52 20z"/>
<path d="M1103 8403 c9 -2 17 -9 17 -15 0 -6 -9 -8 -20 -5 -17 4 -20 0 -20
-29 0 -40 23 -55 47 -31 10 10 13 22 8 34 -5 10 -7 26 -6 36 2 12 -4 17 -21
16 -17 -1 -18 -3 -5 -6z m17 -58 c0 -16 -6 -25 -15 -25 -15 0 -21 31 -8 43 13
14 23 6 23 -18z"/>
<path d="M1165 8401 c-3 -6 0 -8 8 -5 20 7 33 -16 16 -28 -11 -7 -11 -11 -1
-15 6 -2 12 -12 12 -20 0 -12 -7 -14 -27 -8 -21 5 -25 4 -17 -5 7 -7 20 -10
30 -8 26 5 28 91 2 96 -9 2 -19 -2 -23 -7z"/>
<path d="M1005 8320 c-4 -6 7 -10 27 -9 27 0 30 2 13 9 -27 12 -33 12 -40 0z"/>
<path d="M2130 8431 c0 -6 7 -8 15 -5 9 4 18 -2 25 -17 l10 -24 -3 25 c-1 17
-9 26 -24 28 -13 2 -23 -1 -23 -7z"/>
<path d="M2223 8434 c9 -3 17 -10 17 -15 0 -6 -9 -7 -21 -4 -18 6 -20 3 -17
-32 2 -30 7 -39 25 -41 24 -4 34 20 30 68 -1 19 -8 25 -27 27 -14 1 -18 0 -7
-3z m17 -59 c0 -16 -6 -25 -15 -25 -16 0 -19 9 -9 34 9 25 24 19 24 -9z"/>
<path d="M2286 8424 c-10 -26 -7 -32 14 -27 16 4 20 0 20 -22 0 -23 -3 -26
-21 -22 -16 4 -19 3 -11 -5 6 -6 18 -8 26 -5 20 8 21 56 1 63 -20 8 -19 21 3
27 13 4 12 5 -4 6 -12 0 -25 -6 -28 -15z"/>
<path d="M2130 8355 c-11 -13 -8 -15 21 -14 19 0 27 3 19 6 -8 3 -18 10 -21
15 -3 5 -12 2 -19 -7z"/>
<path d="M4347 8423 c-13 -13 -7 -21 13 -16 15 4 20 0 20 -13 0 -14 3 -15 12
-6 8 8 8 15 -2 27 -13 16 -32 20 -43 8z"/>
<path d="M4430 8421 c0 -5 8 -12 18 -15 10 -3 7 -4 -8 -3 -30 2 -38 -24 -19
-59 25 -48 55 -15 47 52 -3 27 -38 50 -38 25z m30 -61 c0 -11 -7 -20 -15 -20
-8 0 -15 9 -15 20 0 11 7 20 15 20 8 0 15 -9 15 -20z"/>
<path d="M4490 8420 c0 -5 14 -10 30 -10 17 0 30 5 30 10 0 6 -13 10 -30 10
-16 0 -30 -4 -30 -10z"/>
<path d="M4514 8364 c-6 -19 -8 -37 -4 -39 8 -5 25 64 18 70 -2 2 -8 -12 -14
-31z"/>
<path d="M4346 8342 c-13 -12 -5 -22 19 -22 14 0 25 4 25 9 0 10 -36 21 -44
13z"/>
<path d="M5440 8415 c-11 -13 -10 -14 4 -9 11 4 22 0 31 -12 12 -15 14 -16 15
-3 0 15 -18 39 -31 39 -4 0 -12 -7 -19 -15z"/>
<path d="M5523 8418 c-19 -24 -22 -48 -11 -73 23 -50 54 -16 46 51 -3 31 -20
41 -35 22z m24 -14 c-3 -3 -12 -4 -19 -1 -8 3 -5 6 6 6 11 1 17 -2 13 -5z m3
-44 c0 -11 -7 -20 -15 -20 -8 0 -15 9 -15 20 0 11 7 20 15 20 8 0 15 -9 15
-20z"/>
<path d="M5591 8416 c-21 -25 4 -115 26 -92 4 4 1 12 -7 17 -12 8 -10 10 8 6
20 -5 22 -1 21 31 0 32 -1 34 -9 15 -12 -28 -26 -29 -33 -3 -3 13 0 20 9 20 8
0 14 5 14 10 0 14 -16 12 -29 -4z"/>
<path d="M5437 8343 c-15 -14 -5 -23 26 -23 30 1 31 1 13 15 -22 17 -29 18
-39 8z"/>
<path d="M6547 8423 c-13 -13 -7 -21 13 -16 15 4 20 0 20 -13 0 -14 3 -15 12
-6 8 8 8 15 -2 27 -13 16 -32 20 -43 8z"/>
<path d="M6615 8420 c3 -5 15 -10 25 -10 17 0 18 -2 4 -27 -7 -16 -14 -37 -13
-48 0 -12 6 -4 15 20 29 76 29 75 -5 75 -19 0 -30 -4 -26 -10z"/>
<path d="M6717 8418 c-2 -7 -1 -33 3 -58 l7 -45 2 58 c1 56 -2 69 -12 45z"/>
<path d="M6546 8342 c-13 -12 -5 -22 19 -22 14 0 25 4 25 9 0 10 -36 21 -44
13z"/>
<path d="M8747 7514 c-13 -14 -7 -22 12 -17 13 3 21 -1 24 -14 4 -12 5 -9 4 7
-2 24 -26 38 -40 24z"/>
<path d="M8810 7511 c0 -5 14 -11 30 -13 20 -3 30 0 30 9 0 8 -12 13 -30 13
-16 0 -30 -4 -30 -9z"/>
<path d="M8900 7501 c-15 -29 -12 -40 10 -34 16 4 20 0 20 -17 0 -18 -4 -21
-21 -17 -13 3 -19 1 -16 -6 7 -23 33 -18 47 9 13 24 13 28 -9 45 -18 14 -19
19 -7 19 9 0 16 5 16 10 0 18 -29 11 -40 -9z"/>
<path d="M8835 7450 c-4 -17 -5 -34 -2 -36 2 -3 7 10 11 27 3 18 4 34 2 36 -2
3 -7 -10 -11 -27z"/>
<path d="M8746 7432 c-13 -12 -5 -22 19 -22 14 0 25 4 25 9 0 10 -36 21 -44
13z"/>
<path d="M1464 7715 c26 -19 42 -19 26 0 -7 8 -20 15 -29 15 -13 -1 -13 -3 3
-15z"/>
<path d="M1527 7723 c-13 -13 -7 -21 13 -16 15 4 20 0 20 -13 0 -14 3 -15 12
-6 8 8 8 15 -2 27 -13 16 -32 20 -43 8z"/>
<path d="M1606 7713 c-3 -10 -9 -24 -12 -31 -4 -10 1 -11 20 -6 22 5 26 3 26
-16 0 -19 -4 -21 -27 -15 -26 6 -27 5 -11 -11 14 -14 20 -15 32 -4 21 17 20
57 -1 69 -17 10 -17 10 0 11 9 0 17 5 17 10 0 17 -37 11 -44 -7z"/>
<path d="M1677 7723 c-4 -3 -7 -25 -7 -49 0 -29 5 -44 16 -48 24 -9 44 12 44
48 0 43 -31 72 -53 49z m33 -48 c0 -24 -5 -35 -15 -35 -10 0 -15 11 -15 35 0
24 5 35 15 35 10 0 15 -11 15 -35z"/>
<path d="M1767 7723 c-11 -10 -8 -33 4 -33 5 0 7 5 3 11 -5 9 1 10 21 5 25 -6
27 -5 16 8 -14 17 -33 21 -44 9z"/>
<path d="M1847 7690 c3 -25 11 -51 18 -59 11 -11 16 -7 26 30 l12 44 8 -33 c7
-36 24 -59 31 -45 12 21 18 63 8 63 -5 0 -10 -7 -10 -16 0 -8 -4 -12 -10 -9
-5 3 -10 17 -10 30 0 13 -5 27 -11 31 -14 8 -29 -14 -29 -45 0 -29 -11 -21
-27 22 -12 31 -12 31 -6 -13z"/>
<path d="M1961 7714 c0 -11 3 -14 6 -6 3 7 2 16 -1 19 -3 4 -6 -2 -5 -13z"/>
<path d="M1432 7678 c-2 -46 24 -66 54 -43 18 14 17 14 -13 9 -31 -6 -32 -5
-36 32 l-4 39 -1 -37z"/>
<path d="M1788 7673 c6 -2 12 -11 12 -20 0 -10 -6 -12 -22 -8 -22 7 -22 6 -5
-11 16 -17 18 -17 33 -2 20 20 12 48 -13 47 -11 0 -13 -3 -5 -6z"/>
<path d="M1526 7642 c-13 -12 -5 -22 19 -22 14 0 25 4 25 9 0 10 -36 21 -44
13z"/>
<path d="M9500 7535 c-12 -14 -11 -16 12 -10 20 5 27 2 31 -12 4 -12 5 -9 4 7
-2 29 -28 38 -47 15z"/>
<path d="M9585 7540 c-4 -6 5 -10 19 -10 14 0 26 5 26 10 0 6 -9 10 -19 10
-11 0 -23 -4 -26 -10z"/>
<path d="M9655 7539 c-4 -6 -7 -25 -7 -44 0 -19 3 -38 7 -44 12 -20 35 -11 46
16 17 46 -23 110 -46 72z m35 -44 c0 -24 -5 -35 -15 -35 -10 0 -15 11 -15 35
0 24 5 35 15 35 10 0 15 -11 15 -35z"/>
<path d="M9577 7513 c-14 -13 -6 -20 18 -15 21 4 25 0 26 -19 1 -18 2 -19 6
-6 8 30 -30 61 -50 40z"/>
<path d="M9506 7462 c-13 -12 -5 -22 19 -22 14 0 25 4 25 9 0 10 -36 21 -44
13z"/>
<path d="M9581 7454 c13 -16 29 -19 29 -5 0 5 -9 11 -21 14 -16 4 -18 3 -8 -9z"/>
<path d="M10066 7581 c-3 -5 2 -7 13 -4 14 4 21 -1 24 -19 5 -22 5 -22 4 2 -2
25 -30 40 -41 21z"/>
<path d="M10131 7586 c12 -10 59 -15 59 -6 0 5 -14 10 -32 10 -17 0 -29 -2
-27 -4z"/>
<path d="M10214 7576 c-3 -8 -4 -29 -2 -48 2 -25 8 -34 26 -36 12 -2 23 0 23
5 6 36 4 70 -4 81 -13 16 -36 15 -43 -2z m36 -11 c0 -8 -7 -15 -15 -15 -8 0
-15 7 -15 15 0 8 7 15 15 15 8 0 15 -7 15 -15z m0 -50 c0 -8 -7 -15 -15 -15
-8 0 -15 7 -15 15 0 8 7 15 15 15 8 0 15 -7 15 -15z"/>
<path d="M10155 7530 c-4 -17 -5 -34 -2 -36 2 -3 7 10 11 27 3 18 4 34 2 36
-2 3 -7 -10 -11 -27z"/>
<path d="M10060 7500 c0 -5 12 -10 28 -10 21 0 24 2 12 10 -20 13 -40 13 -40
0z"/>
<path d="M4346 6822 c-3 -6 3 -8 14 -5 14 4 20 0 20 -11 0 -9 5 -16 11 -16 6
0 9 8 7 18 -4 19 -42 29 -52 14z"/>
<path d="M4444 6822 c24 -10 6 -25 -18 -16 -12 5 -16 -1 -16 -24 0 -33 22 -57
45 -48 12 4 15 17 13 48 -3 34 -7 43 -23 45 -19 3 -19 3 -1 -5z m16 -57 c0
-16 -6 -25 -15 -25 -9 0 -15 9 -15 25 0 16 6 25 15 25 9 0 15 -9 15 -25z"/>
<path d="M4496 6818 c-3 -7 -4 -29 -3 -48 2 -30 5 -35 27 -35 23 0 25 4 25 45
0 39 -3 45 -23 48 -12 2 -24 -3 -26 -10z m34 -13 c0 -8 -7 -15 -15 -15 -8 0
-15 7 -15 15 0 8 7 15 15 15 8 0 15 -7 15 -15z m0 -51 c0 -9 -5 -14 -12 -12
-18 6 -21 28 -4 28 9 0 16 -7 16 -16z"/>
<path d="M4340 6740 c0 -5 15 -10 33 -9 27 0 29 2 12 9 -28 12 -45 12 -45 0z"/>
<path d="M5435 6820 c-5 -9 -1 -10 14 -5 15 5 21 2 21 -9 0 -9 5 -16 11 -16 6
0 9 8 7 18 -4 20 -43 29 -53 12z"/>
<path d="M5526 6823 c16 -3 21 -10 18 -26 -4 -21 -4 -21 5 -2 15 31 13 35 -16
34 -22 -1 -24 -3 -7 -6z"/>
<path d="M5584 6817 c-3 -8 -4 -30 -2 -49 2 -28 7 -33 28 -33 23 0 25 4 25 45
0 39 -3 45 -23 48 -13 2 -24 -3 -28 -11z m44 -35 c2 -24 -1 -32 -12 -32 -12 0
-16 10 -16 36 0 45 24 42 28 -4z"/>
<path d="M5522 6750 c0 -14 2 -19 5 -12 2 6 2 18 0 25 -3 6 -5 1 -5 -13z"/>
<path d="M5430 6740 c0 -5 15 -10 33 -9 27 0 29 2 12 9 -28 12 -45 12 -45 0z"/>
<path d="M1039 6804 c-12 -15 -12 -16 8 -10 15 5 25 2 33 -11 9 -16 10 -15 8
7 -4 30 -29 37 -49 14z"/>
<path d="M1130 6811 c0 -5 6 -12 13 -15 6 -4 2 -4 -10 -2 -20 4 -23 0 -23 -29
0 -18 7 -39 16 -46 14 -11 18 -10 30 5 20 28 9 96 -17 96 -5 0 -9 -4 -9 -9z
m20 -61 c0 -11 -7 -20 -15 -20 -8 0 -15 9 -15 20 0 11 7 20 15 20 8 0 15 -9
15 -20z"/>
<path d="M1190 6805 c-12 -14 -11 -16 12 -10 20 5 27 2 31 -12 4 -12 5 -9 4 7
-2 29 -28 38 -47 15z"/>
<path d="M1037 6734 c-3 -4 -4 -11 -1 -15 7 -12 54 -11 54 1 0 6 -4 10 -9 10
-5 0 -16 2 -23 5 -8 3 -17 3 -21 -1z"/>
<path d="M1192 6733 c-6 -3 -10 -9 -6 -14 7 -12 54 -12 54 0 0 11 -30 19 -48
14z"/>
<path d="M2130 6805 c-12 -14 -11 -16 12 -10 20 5 27 2 31 -12 4 -12 5 -9 4 7
-2 29 -28 38 -47 15z"/>
<path d="M2220 6811 c0 -5 6 -12 13 -15 6 -4 2 -4 -10 -2 -20 4 -23 0 -23 -29
0 -40 23 -63 45 -45 23 19 11 100 -16 100 -5 0 -9 -4 -9 -9z m20 -61 c0 -11
-7 -20 -15 -20 -15 0 -21 21 -8 33 12 13 23 7 23 -13z"/>
<path d="M2318 6814 c-4 -4 -5 -18 -2 -30 5 -18 2 -24 -10 -24 -10 0 -13 6
-10 18 5 14 4 15 -5 2 -17 -23 -13 -40 9 -40 12 0 20 -7 20 -17 0 -13 4 -12
14 7 7 14 9 30 5 35 -4 6 -9 21 -11 33 -1 13 -6 21 -10 16z"/>
<path d="M2136 6732 c-13 -12 -5 -22 19 -22 14 0 25 4 25 9 0 10 -36 21 -44
13z"/>
<path d="M6546 6791 c-4 -5 3 -7 14 -4 14 4 20 0 20 -11 0 -9 5 -16 11 -16 6
0 8 7 5 16 -3 9 -6 18 -6 20 0 8 -39 4 -44 -5z"/>
<path d="M6611 6796 c12 -10 59 -15 59 -6 0 5 -14 10 -32 10 -17 0 -29 -2 -27
-4z"/>
<path d="M6695 6790 c-4 -6 -4 -14 -1 -17 3 -4 6 -1 6 5 0 7 7 12 15 12 8 0
15 -7 15 -15 0 -8 5 -15 11 -15 6 0 9 8 7 18 -4 20 -43 29 -53 12z"/>
<path d="M6635 6739 c-10 -42 -2 -45 11 -3 6 19 8 34 3 34 -4 0 -10 -14 -14
-31z"/>
<path d="M6540 6710 c0 -5 15 -10 33 -9 27 0 29 2 12 9 -28 12 -45 12 -45 0z"/>
<path d="M6690 6710 c0 -5 15 -10 33 -9 27 0 29 2 12 9 -28 12 -45 12 -45 0z"/>
<path d="M9879 6624 c-11 -13 -9 -14 13 -9 20 5 27 3 31 -12 4 -15 5 -15 6 3
0 12 -6 25 -15 28 -21 8 -20 8 -35 -10z"/>
<path d="M9950 6630 c0 -5 14 -10 31 -10 17 0 28 4 24 10 -3 6 -17 10 -31 10
-13 0 -24 -4 -24 -10z"/>
<path d="M10034 6622 c-15 -23 -6 -82 13 -89 8 -3 19 0 24 8 13 20 11 73 -3
87 -16 16 -21 15 -34 -6z m36 -22 c0 -11 -7 -20 -15 -20 -8 0 -15 9 -15 20 0
11 7 20 15 20 8 0 15 -9 15 -20z m-3 -46 c-3 -3 -12 -4 -19 -1 -8 3 -5 6 6 6
11 1 17 -2 13 -5z"/>
<path d="M9974 6574 c-6 -19 -8 -37 -4 -39 8 -5 25 64 18 70 -2 2 -8 -12 -14
-31z"/>
<path d="M9886 6552 c-13 -12 -5 -22 19 -22 14 0 25 4 25 9 0 10 -36 21 -44
13z"/>
<path d="M1005 2380 c-5 -8 -1 -10 12 -6 14 5 23 0 31 -16 l12 -23 -3 25 c-2
27 -39 41 -52 20z"/>
<path d="M1084 2376 c-3 -8 -4 -29 -2 -48 2 -25 8 -34 26 -36 12 -2 23 0 23 5
6 36 4 70 -4 81 -13 16 -36 15 -43 -2z m36 -11 c0 -8 -7 -15 -15 -15 -8 0 -15
7 -15 15 0 8 7 15 15 15 8 0 15 -7 15 -15z m0 -50 c0 -8 -7 -15 -15 -15 -8 0
-15 7 -15 15 0 8 7 15 15 15 8 0 15 -7 15 -15z"/>
<path d="M1154 2366 c-10 -43 3 -78 29 -74 19 3 22 9 22 48 0 39 -3 45 -22 48
-17 3 -24 -3 -29 -22z m44 -23 c-4 -52 -28 -56 -28 -4 0 30 4 41 16 41 11 0
14 -9 12 -37z"/>
<path d="M1520 2386 c0 -9 40 -13 46 -5 3 5 -6 9 -20 9 -14 0 -26 -2 -26 -4z"/>
<path d="M1520 2339 c0 -12 7 -19 19 -19 30 0 32 14 5 27 -21 10 -24 9 -24 -8z"/>
<path d="M1005 2300 c-4 -6 7 -10 27 -9 27 0 30 2 13 9 -27 12 -33 12 -40 0z"/>
</g>
</svg>
