<?xml version="1.0" standalone="no"?>
<!DOCTYPE svg PUBLIC "-//W3C//DTD SVG 20010904//EN"
 "http://www.w3.org/TR/2001/REC-SVG-20010904/DTD/svg10.dtd">
<svg version="1.0" xmlns="http://www.w3.org/2000/svg"
 width="1255.000000pt" height="960.000000pt" viewBox="0 0 1255.000000 960.000000"
 preserveAspectRatio="xMidYMid meet">

<g transform="translate(0.000000,960.000000) scale(0.100000,-0.100000)"
fill="#000000" stroke="none">
<path d="M8998 8385 l3 -445 -4055 0 c-2230 0 -4061 -3 -4070 -6 -15 -6 -16
-323 -16 -3495 l0 -3489 2852 -2 2853 -3 3 -27 3 -28 521 0 c476 0 520 1 514
16 -18 46 -91 44 1780 44 l1764 0 0 1630 0 1630 225 0 c143 0 225 4 225 10 0
6 -82 10 -225 10 -218 0 -225 1 -225 20 0 19 7 20 228 22 l227 2 -225 6 -225
5 -3 36 -3 36 -75 11 c-80 13 -134 35 -134 55 0 19 168 182 188 182 12 0 18
10 20 38 l3 37 225 0 c143 0 224 4 224 10 0 6 -82 10 -225 10 -218 0 -225 1
-225 20 0 19 7 20 225 20 143 0 225 4 225 10 0 6 -82 10 -225 10 l-226 0 3 83
3 82 188 0 187 0 0 1342 c0 1270 1 1342 18 1345 16 3 -82 67 -205 133 -39 21
-53 34 -55 53 -3 28 -28 43 -28 17 0 -20 -12 -17 -69 20 -35 21 -41 30 -41 59
0 22 -6 36 -16 40 -9 3 -348 6 -755 6 l-740 0 3 445 3 445 -325 0 -325 0 3
-445z m630 -7 c2 -433 2 -438 -18 -438 -20 0 -20 6 -20 415 l0 415 -275 0
-275 0 0 -415 c0 -362 -2 -415 -15 -415 -13 0 -15 55 -15 433 0 239 3 437 7
440 4 4 142 6 307 5 l301 -3 3 -437z m-58 -27 l0 -410 -22 -3 c-21 -3 -23 -9
-26 -65 -3 -61 -3 -62 -68 -127 -36 -36 -71 -66 -78 -66 -6 0 -20 25 -31 55
-10 31 -23 54 -28 52 -5 -1 -20 -30 -32 -62 l-22 -60 -71 69 -71 68 -3 67 c-3
64 -4 66 -30 69 l-28 3 0 410 0 409 255 0 255 0 0 -409z m-470 -506 l0 -75
-119 0 -120 0 -3 -27 c-3 -28 -3 -28 -90 -31 l-88 -3 0 31 0 30 -462 -2 -463
-3 -3 -28 -3 -28 -87 3 c-87 3 -87 3 -90 31 l-3 27 -484 0 -484 0 -3 -27 c-3
-28 -3 -28 -83 -28 -80 0 -80 0 -83 28 l-3 27 -425 0 -424 0 0 -25 c0 -25 -1
-25 -85 -25 -84 0 -85 0 -85 25 l0 25 -484 0 -485 0 -3 -27 c-3 -28 -3 -28
-90 -31 l-87 -3 -3 28 -3 28 -442 3 c-294 1 -443 -1 -443 -8 0 -7 149 -10 435
-10 l435 0 0 -25 0 -25 105 0 105 0 0 25 0 25 469 0 c467 0 470 0 473 -21 3
-19 10 -20 101 -22 95 -2 97 -1 97 21 l0 22 415 0 415 0 0 -25 0 -26 98 3 c92
3 97 4 100 26 l3 22 415 0 414 0 0 -50 0 -50 -2925 0 -2925 0 0 50 0 50 215 0
c208 0 215 -1 215 -20 0 -19 7 -20 105 -20 98 0 105 1 105 20 0 20 7 20 429
20 l430 0 3 -22 c3 -22 7 -23 137 -26 125 -2 168 5 148 25 -4 4 -13 1 -19 -5
-8 -8 -52 -12 -130 -12 l-118 0 0 30 0 30 -447 -2 c-440 -3 -448 -3 -448 -23
0 -19 -7 -20 -90 -20 -83 0 -90 1 -90 20 0 20 -8 20 -463 23 l-462 2 0 -30 c0
-29 -2 -30 -45 -30 l-45 0 0 -1380 0 -1380 50 0 c49 0 50 -1 50 -30 l0 -30 71
0 c61 0 70 -2 65 -16 -3 -9 -6 -24 -6 -35 0 -18 -8 -19 -115 -19 l-115 0 2
-1851 3 -1850 258 0 257 0 0 752 c0 414 -2 755 -5 757 -3 3 -5 -333 -5 -747
l0 -751 -247 2 -248 3 -3 1829 c-2 1457 0 1831 10 1838 7 4 62 8 121 8 l108 0
16 -37 c8 -21 24 -51 35 -66 l20 -28 84 81 c46 44 88 80 94 80 7 0 11 -349 13
-1062 l2 -1063 2 1085 3 1085 162 3 c131 2 164 5 171 17 6 11 27 15 81 15 56
0 75 4 80 15 8 21 151 22 163 0 6 -10 31 -15 88 -17 l80 -3 0 -45 0 -45 -172
-3 -173 -2 0 -105 0 -105 -25 0 -25 0 0 105 0 105 -195 0 -195 0 0 -350 0
-350 195 0 194 0 3 108 c3 99 4 107 23 107 19 0 20 -8 23 -107 l3 -108 79 0
c46 0 80 -4 80 -10 0 -6 -111 -11 -297 -12 l-298 -3 0 -690 0 -690 2 674 c2
487 6 678 15 688 9 11 65 13 298 12 l287 -1 88 91 c49 51 95 90 104 89 24 -5
51 -61 59 -123 l7 -58 85 2 c109 3 118 11 12 11 -48 0 -82 4 -82 10 0 6 34 10
83 10 l82 0 0 172 0 173 560 0 c553 0 560 0 561 -20 0 -12 41 -60 97 -114 104
-102 106 -107 43 -136 -26 -12 -73 -21 -123 -24 -7 -1 -13 -5 -13 -11 0 -13
47 -13 55 0 3 6 18 10 33 10 27 0 95 31 120 54 10 10 -5 30 -78 104 -64 66
-90 99 -90 117 l0 25 473 2 472 3 5 165 5 165 570 0 570 0 3 -1172 2 -1173 50
0 50 0 2 802 3 803 1025 3 c564 1 1035 0 1048 -3 22 -5 22 -6 22 -225 l0 -219
110 -107 c64 -62 109 -114 108 -123 -5 -25 -85 -61 -154 -69 l-64 -7 -3 -690
-2 -690 -80 -3 c-110 -4 -125 1 -125 41 0 36 -36 104 -62 121 -15 9 -32 -3
-106 -77 -87 -87 -89 -88 -133 -85 l-44 3 -3 143 -3 142 -359 0 -359 0 -3
-142 -3 -143 -175 -3 -175 -2 -65 65 c-35 36 -68 65 -73 65 -10 0 -27 -17 -49
-49 l-17 -24 -21 37 c-12 20 -25 36 -28 36 -3 0 -36 -29 -73 -65 -57 -55 -72
-65 -103 -65 -29 0 -36 4 -36 20 0 17 -7 20 -50 20 l-50 0 0 -420 0 -420
-1050 0 -1050 0 2 562 3 562 48 12 c42 11 127 57 127 69 0 2 -39 43 -87 92
l-88 87 -5 216 -6 215 -2 -207 c-1 -125 -6 -209 -12 -213 -7 -4 -11 68 -12
207 l-2 213 -6 -210 c-5 -222 -5 -235 14 -235 21 0 169 -157 163 -173 -8 -22
-68 -48 -127 -56 l-51 -6 -2 -565 -2 -565 -530 0 -530 0 -5 750 -5 750 -3
-757 c-1 -417 1 -758 6 -758 4 0 249 -1 545 -3 l537 -2 0 568 c0 371 3 567 10
567 7 0 10 -196 10 -567 l0 -568 1060 0 1060 0 0 417 0 418 24 6 c29 7 46 -1
46 -22 0 -10 12 -14 40 -14 22 0 40 -2 40 -4 0 -2 3 -11 6 -20 4 -11 -4 -15
-38 -18 l-43 -3 -3 -257 -2 -258 65 0 64 0 3 -121 3 -120 213 -2 212 -2 -2
380 -3 380 -33 5 c-18 3 -33 8 -32 13 0 4 0 12 0 17 0 7 73 10 211 10 173 -1
211 -4 216 -16 3 -8 16 -14 29 -14 23 0 24 -3 24 -60 l0 -59 -127 -3 -128 -3
-3 -352 -2 -353 395 0 395 0 0 355 0 355 -130 0 -130 0 0 60 c0 60 0 60 29 60
16 0 31 6 35 15 4 13 34 15 176 15 l170 0 2 -400 3 -400 1670 0 1670 0 3 1000
2 1000 -725 0 -725 0 0 141 c0 91 4 138 10 134 6 -4 10 -57 10 -126 l0 -119
715 0 715 0 0 465 0 465 -715 0 -715 0 0 -130 c0 -80 -4 -130 -10 -130 -6 0
-10 50 -10 130 l0 130 -40 0 c-38 0 -59 18 -22 20 9 0 44 4 77 8 l60 6 -60 6
-60 5 -3 173 -2 172 90 0 c75 0 90 -3 90 -16 0 -11 -6 -14 -21 -9 -15 5 -19 4
-15 -4 12 -19 47 -13 53 9 7 26 33 26 33 1 0 -11 4 -23 10 -26 14 -9 50 13 50
30 0 8 6 15 14 15 9 0 12 -7 9 -20 -4 -15 0 -20 15 -20 27 0 45 25 37 50 -4
14 5 40 31 84 29 51 43 65 67 70 29 6 29 7 12 26 -17 19 -16 22 22 82 l39 63
82 3 c76 3 82 1 82 -17 0 -12 37 -56 95 -112 53 -51 94 -97 92 -103 -7 -22
-66 -46 -125 -52 l-62 -7 -2 -181 -3 -181 -149 -2 c-124 -1 -151 -4 -158 -17
-7 -12 -29 -16 -96 -18 l-87 -2 90 -5 c78 -5 92 -4 104 11 12 16 32 18 161 18
126 0 149 2 154 16 3 9 7 91 8 182 l2 167 6 -180 5 -180 380 0 380 0 5 80 c5
72 7 80 26 83 12 2 24 12 27 23 5 17 12 20 54 17 l48 -3 3 -1684 c2 -1356 0
-1686 -10 -1693 -7 -4 -806 -8 -1775 -8 l-1762 0 -3 -27 -3 -28 -500 0 -500 0
-3 28 -3 27 -2839 0 c-1561 0 -2845 3 -2854 6 -15 6 -16 321 -16 3473 0 1907
3 3471 7 3474 3 4 1855 7 4115 7 l4108 0 0 -75z m2038 53 c2 -11 -3 -18 -12
-18 -19 0 -21 -11 -4 -28 14 -14 20 -416 6 -444 -6 -13 -21 -16 -75 -15 l-68
2 -3 158 -3 157 -44 0 c-43 0 -45 1 -45 30 l0 30 -464 0 -464 0 -9 -72 c-8
-71 -9 -73 -37 -76 -19 -2 -32 2 -38 12 -7 13 -30 16 -128 16 l-120 0 0 60 0
60 -50 0 -50 0 0 75 0 75 802 -2 c755 -3 803 -4 806 -20z m60 -84 c32 -22 27
-36 -10 -32 -25 2 -34 8 -36 26 -4 26 14 29 46 6z m69 -57 c-3 -8 -1 -20 4
-28 8 -12 12 -11 23 4 17 21 18 21 46 -3 l23 -20 -106 0 -107 0 0 30 0 30 61
0 c47 0 60 -3 56 -13z m-2082 -57 c33 -33 64 -60 70 -60 11 0 45 71 45 95 0 8
6 15 13 15 13 0 31 -36 43 -82 3 -16 11 -28 17 -28 6 0 39 27 72 59 l60 59 58
-5 58 -6 -2 -56 -3 -56 47 -3 47 -3 0 -195 0 -194 60 0 60 0 -2 -227 -3 -228
-187 -3 -188 -2 0 -285 0 -284 -42 -12 c-45 -12 -80 -29 -113 -54 -19 -15 -16
-19 68 -103 l87 -87 0 -158 0 -157 -30 0 c-39 0 -82 22 -107 54 -22 27 -30 24
-56 -16 -22 -36 -38 -35 -60 2 -23 38 -33 38 -75 -2 -30 -30 -39 -33 -92 -33
-49 1 -60 -2 -64 -18 -4 -15 -13 -18 -58 -15 l-53 3 -3 97 -3 98 -3267 2
-3267 3 -3 428 -2 427 -98 -2 -97 -2 90 -5 90 -6 3 -542 2 -543 2985 0 2985 0
0 115 0 115 283 -2 282 -3 0 -98 0 -97 68 0 c65 0 67 -1 67 -25 0 -19 5 -25
21 -25 18 0 19 -3 9 -15 -6 -8 -9 -23 -5 -35 6 -19 2 -20 -54 -20 -33 0 -63
-5 -66 -11 -10 -15 -6 -16 65 -10 62 6 65 7 68 34 2 15 8 27 13 27 5 0 9 7 9
15 0 12 17 15 95 15 l95 0 0 -65 c0 -54 3 -65 16 -65 14 0 16 9 12 65 l-6 65
84 0 c88 0 117 -13 126 -57 2 -10 10 -17 17 -15 34 7 41 -18 41 -155 0 -115
-2 -132 -14 -121 -8 8 -15 23 -17 33 -5 25 -28 31 -35 8 -3 -10 -12 -30 -20
-45 -18 -34 -18 -43 2 -24 21 21 47 20 68 -3 14 -15 16 -37 14 -142 -3 -112
-5 -124 -22 -127 -24 -5 -36 14 -36 56 l0 32 -205 0 c-129 0 -205 -4 -206 -10
-1 -5 -3 -14 -4 -20 -1 -5 -3 -14 -4 -20 0 -6 -32 -10 -71 -10 -68 0 -70 1
-70 25 0 30 -16 33 -25 4 -10 -31 3 -38 85 -41 74 -3 74 -3 83 -35 16 -56 7
-63 -83 -63 -52 0 -80 -4 -80 -11 0 -6 7 -8 16 -5 9 3 49 6 89 6 l74 0 3 38 3
37 90 0 90 0 3 -62 c2 -50 6 -63 19 -63 14 0 15 10 10 65 l-6 66 87 -3 87 -3
3 -35 c2 -19 10 -39 18 -43 12 -7 14 -65 14 -347 0 -397 6 -382 -105 -270 -38
39 -74 70 -81 70 -6 0 -19 -18 -30 -40 -22 -46 -31 -49 -44 -17 -11 27 -35 57
-44 57 -4 0 -39 -32 -79 -71 l-72 -71 -72 3 c-39 2 -75 0 -79 -4 -8 -8 -4 -8
80 -11 37 0 61 -6 63 -13 4 -10 -33 -13 -161 -13 -144 0 -166 2 -166 16 0 13
13 15 83 13 l82 -2 3 356 2 357 -1435 0 -1435 0 2 -355 3 -355 1105 -3 c726
-1 1106 -5 1108 -12 1 -5 -12 -12 -30 -15 l-33 -5 -5 -230 c-3 -126 -9 -221
-13 -211 -4 11 -7 114 -7 230 l2 211 -1064 0 -1063 0 -3 -803 -2 -803 -33 3
-32 3 -3 1173 -2 1172 -1060 0 -1060 0 0 -159 c0 -96 -4 -162 -10 -166 -7 -4
-10 52 -10 159 l0 166 -190 0 -190 0 -2 -162 -3 -163 -35 -1 -35 -2 33 5 32 4
0 160 0 159 -375 0 -375 0 0 29 c0 17 6 31 16 35 9 3 85 6 170 6 130 0 154 2
154 15 0 12 15 15 79 15 61 0 80 3 85 15 8 22 154 22 162 0 5 -11 24 -15 80
-15 57 0 76 -4 80 -15 9 -23 619 -23 628 0 4 11 23 15 81 15 60 0 75 3 75 15
0 22 148 22 156 0 5 -12 24 -15 84 -15 60 0 79 -3 84 -15 8 -23 616 -23 616 0
0 12 15 15 79 15 61 0 80 3 85 15 4 12 23 15 81 15 58 0 77 -3 81 -15 5 -11
24 -15 80 -15 57 0 76 -4 80 -15 5 -13 49 -15 309 -15 260 0 304 2 309 15 4
12 23 15 85 15 61 0 80 3 85 15 4 12 23 15 81 15 58 0 77 -3 81 -15 5 -12 24
-15 85 -15 64 0 79 -3 79 -15 0 -13 40 -15 304 -15 261 0 305 2 310 15 4 12
24 15 86 15 64 0 80 3 80 15 0 22 155 22 164 0 4 -11 23 -15 80 -15 57 0 77
-4 84 -15 7 -13 39 -15 218 -13 l209 3 3 28 3 28 72 -3 c70 -3 72 -4 75 -30 3
-24 8 -28 37 -28 20 0 35 6 39 15 4 11 22 15 71 15 51 0 65 3 65 15 0 12 16
15 85 15 l85 0 0 35 c0 29 4 35 18 33 11 -2 18 5 20 21 3 16 0 21 -10 17 -7
-3 -21 -9 -30 -12 -13 -5 -18 -17 -18 -45 l0 -39 -85 0 c-69 0 -85 -3 -85 -15
0 -12 -14 -15 -70 -15 -57 0 -70 -3 -70 -16 0 -28 -35 -11 -38 19 l-3 27 -90
0 -89 0 0 -30 0 -30 -195 0 c-165 0 -197 2 -201 15 -5 12 -24 15 -85 15 -64 0
-79 3 -79 15 0 12 -18 15 -100 15 -82 0 -100 -3 -100 -15 0 -12 -15 -15 -79
-15 -61 0 -80 -3 -85 -15 -5 -13 -46 -15 -291 -15 -247 0 -285 2 -285 15 0 12
-16 15 -80 15 -62 0 -82 3 -86 15 -5 12 -26 15 -100 15 -75 0 -96 -3 -100 -15
-5 -12 -24 -15 -84 -15 -60 0 -79 -3 -84 -15 -5 -13 -46 -15 -291 -15 -247 0
-285 2 -285 15 0 12 -15 15 -79 15 -61 0 -80 3 -85 15 -8 22 -191 22 -200 0
-4 -12 -23 -15 -81 -15 -58 0 -77 -3 -81 -15 -9 -23 -572 -23 -580 0 -5 12
-24 15 -85 15 -64 0 -79 3 -79 15 0 12 -18 15 -100 15 -82 0 -100 -3 -100 -15
0 -12 -16 -15 -80 -15 -64 0 -80 -3 -80 -15 0 -13 -39 -15 -289 -15 -248 0
-290 2 -295 15 -4 11 -23 15 -80 15 -56 0 -75 4 -80 15 -8 22 -191 22 -200 0
-4 -12 -24 -15 -86 -15 -64 0 -80 -3 -80 -15 0 -13 -25 -15 -165 -15 l-165 0
0 -40 0 -40 -115 0 -115 0 0 55 0 55 -79 0 c-61 0 -80 3 -85 15 -8 22 -191 22
-200 0 -4 -12 -24 -15 -86 -15 -64 0 -80 -3 -80 -15 0 -13 -24 -15 -158 -15
l-158 0 -94 -90 c-52 -49 -99 -88 -104 -87 -18 6 -47 74 -53 126 l-6 51 -68 0
-69 0 0 30 c0 29 -2 30 -43 30 -24 0 -48 5 -55 12 -9 9 -12 78 -12 250 l0 238
60 0 60 0 0 38 c0 39 31 115 51 128 6 4 48 -30 98 -80 l86 -86 3718 0 3717 0
0 -87 c0 -83 1 -89 25 -99 26 -12 35 -9 35 13 0 7 -9 13 -20 13 -17 0 -19 8
-22 88 l-3 87 -3665 5 -3665 5 -3 882 -2 882 27 3 28 3 3 248 c1 153 6 247 12
247 7 0 10 -383 10 -1090 l0 -1090 345 0 345 0 -2 538 -3 537 -39 3 c-21 2
-43 -1 -49 -7 -8 -8 -1 -11 25 -11 19 0 41 -6 47 -14 8 -9 10 -125 9 -407 l-3
-394 -333 -3 -332 -2 2 407 3 408 122 3 121 3 88 89 c48 50 93 89 98 87 19 -6
54 -81 55 -114 1 -18 6 -33 11 -33 6 0 8 11 5 25 -3 14 -7 37 -10 51 -7 33
-54 104 -69 104 -6 0 -50 -38 -96 -85 l-85 -86 -120 3 -120 3 -3 478 -2 477
2925 0 2925 0 2 -277 3 -278 750 0 c565 0 761 4 795 13 59 16 144 59 166 83
17 19 15 23 -94 132 l-112 112 0 108 0 107 55 0 55 0 0 59 c0 54 2 60 23 64
12 2 24 5 27 6 3 0 32 -26 65 -59z m-7625 0 l0 -50 -260 0 c-251 0 -260 1
-260 19 0 17 8 20 48 23 45 3 47 4 44 31 l-3 27 215 0 216 0 0 -50z m6000 25
l0 -25 105 0 105 0 0 25 0 25 444 0 445 0 3 -22 c3 -22 8 -23 106 -26 l102 -3
0 26 c0 21 5 25 30 25 29 0 30 -1 30 -50 l0 -50 -725 0 -725 0 0 50 0 50 40 0
c36 0 40 -2 40 -25z m1500 -25 l0 -50 -50 0 -50 0 0 50 0 50 50 0 50 0 0 -50z
m1818 23 c-3 -27 -1 -28 44 -31 l48 -3 -1 -352 c-1 -194 -6 -363 -11 -376 -5
-13 -45 -60 -89 -104 -44 -43 -78 -84 -77 -89 5 -13 86 -56 120 -63 57 -11 56
4 56 -467 0 -275 -4 -438 -10 -445 -8 -10 -85 -13 -324 -13 l-314 0 0 -43 c0
-48 -32 -125 -56 -134 -17 -6 -174 142 -174 164 0 9 -18 13 -60 13 l-60 0 -2
773 -3 772 -42 3 -43 3 0 55 0 54 35 0 c28 0 35 4 35 20 0 16 -7 20 -35 20
l-35 0 0 64 0 65 43 3 42 3 3 68 3 67 455 0 455 0 -3 -27z m520 -32 c8 -4 12
-19 10 -32 -3 -24 -4 -24 -128 -24 l-125 0 -3 33 -3 32 118 0 c65 0 124 -4
131 -9z m93 -48 l29 -17 -2 -1341 -3 -1340 -182 -3 -183 -2 0 35 0 35 150 0
150 0 0 1325 c0 729 3 1325 6 1325 3 0 19 -8 35 -17z m-9936 -35 c3 -13 4 -93
3 -178 l-3 -155 -27 -3 -28 -3 0 -890 0 -889 -51 0 c-51 0 -51 0 -135 85 -47
47 -88 85 -92 85 -16 0 -61 -83 -71 -130 -7 -34 -8 -35 -56 -35 l-50 0 -3
1055 c-1 580 0 1061 3 1068 3 9 64 12 254 12 l251 0 5 -22z m7375 -90 l0 -113
113 -113 112 -113 -30 -22 c-72 -53 -42 -52 -872 -54 l-773 -3 0 265 0 265
725 0 725 0 0 -112z m858 79 c2 -20 -4 -36 -22 -54 -14 -14 -26 -30 -26 -35 0
-5 -4 -6 -10 -3 -11 7 -14 108 -3 119 4 4 19 6 33 4 19 -2 26 -10 28 -31z m70
-44 l3 -73 -31 0 -30 0 0 76 0 75 28 -3 c26 -3 27 -5 30 -75z m1552 37 c0 -29
-2 -30 -42 -30 -24 1 -54 7 -67 14 -20 11 -28 11 -50 0 -14 -8 -43 -14 -63
-14 -36 0 -38 2 -38 30 l0 30 130 0 130 0 0 -30z m-208 -70 c3 -19 5 -19 31
-5 24 12 29 12 33 0 10 -26 -6 -35 -62 -35 -53 0 -54 0 -54 30 0 25 4 30 24
30 17 0 26 -6 28 -20z m206 -7 c-3 -27 -6 -28 -60 -31 -56 -3 -58 -2 -58 23 0
25 14 34 25 15 10 -16 45 -12 45 5 0 9 10 15 26 15 22 0 25 -4 22 -27z m-143
-73 c0 -18 -5 -25 -20 -26 -11 0 -28 -4 -37 -8 -32 -15 -53 -3 -56 32 l-3 33
58 -3 c54 -3 58 -5 58 -28z m143 -2 c-3 -32 -5 -33 -49 -36 -45 -3 -47 -1 -58
29 -6 18 -11 34 -11 35 0 2 27 4 61 4 l60 0 -3 -32z m-1553 -1 c3 -12 5 -58 3
-102 -3 -78 -4 -80 -28 -80 -25 0 -25 1 -28 103 l-3 102 25 0 c18 0 27 -7 31
-23z m-83 -47 c15 -13 19 -26 16 -69 -3 -57 -21 -80 -52 -68 -13 5 -16 22 -16
90 0 86 7 111 23 80 5 -10 18 -25 29 -33z m1500 -22 c5 -32 28 -35 28 -4 0 25
3 26 55 26 54 0 55 0 55 -30 l0 -30 -130 0 -130 0 0 30 c0 30 0 30 59 30 54 0
60 -2 63 -22z m-147 4 c6 -4 10 -59 10 -127 0 -117 -1 -120 -22 -123 -13 -2
-23 1 -23 7 0 5 -12 9 -27 8 l-28 -2 -3 113 -3 112 31 0 c16 0 30 5 30 10 0
12 20 13 35 2z m-118 -179 c-2 -32 -3 -6 -3 57 0 63 1 89 3 58 2 -32 2 -84 0
-115z m398 92 l0 -30 -127 -3 -128 -3 0 29 c0 16 3 32 7 36 4 3 61 5 127 4
l121 -3 0 -30z m-1455 -745 l0 -770 54 0 c30 0 58 -4 61 -10 4 -6 -17 -10 -54
-10 l-61 0 0 -211 c0 -190 -2 -210 -16 -199 -9 8 -14 25 -12 44 3 29 0 31 -32
34 -38 4 -50 15 -50 50 l0 22 -185 0 c-177 0 -185 1 -185 20 0 10 -8 24 -17
29 -13 7 42 10 185 11 l202 0 1 598 c1 328 0 698 -1 822 -1 216 -1 226 19 242
15 13 21 30 21 58 0 39 1 40 35 40 l35 0 0 -770z m1485 -410 l0 -1105 -142 -3
-143 -3 0 206 c0 205 -1 212 -34 206 -4 -1 -13 2 -20 7 -6 5 -52 12 -101 15
-86 6 -150 26 -167 51 -4 6 29 48 78 97 l86 86 70 6 c39 3 75 10 80 15 4 4 7
226 6 493 l-3 484 -27 3 c-16 2 -28 8 -28 13 0 5 -35 9 -77 9 -89 0 -141 12
-175 40 l-23 19 90 91 90 92 48 -5 c26 -2 47 -1 47 3 0 4 14 10 30 14 l30 6 0
135 0 136 143 -3 142 -3 0 -1105z m-300 910 l0 -55 -77 -3 -78 -3 0 61 0 61
78 -3 77 -3 0 -55z m-1321 -296 c14 -6 16 -67 16 -590 l0 -584 -170 0 -169 0
-7 35 c-3 19 -5 107 -3 195 3 111 1 160 -7 160 -6 0 -47 37 -92 82 -64 65 -79
85 -70 96 20 24 72 46 122 52 l48 5 -1 278 -1 277 159 0 c88 0 166 -3 175 -6z
m1314 -77 c6 -5 12 -31 12 -57 0 -57 -5 -60 -96 -60 l-64 0 0 58 c0 32 3 62 7
66 10 10 126 4 141 -7z m-9345 -14 c-35 -2 -91 -2 -125 0 -35 2 -7 3 62 3 69
0 97 -1 63 -3z m9346 -127 c8 -9 11 -52 9 -126 -3 -98 -5 -114 -22 -124 -14
-8 -20 -8 -23 2 -3 6 -18 12 -34 12 l-29 0 0 110 0 110 29 0 c16 0 31 6 35 15
7 19 20 19 35 1z m-122 -173 c-2 -32 -3 -8 -3 52 0 61 1 87 3 58 2 -29 2 -78
0 -110z m131 -151 c5 -62 -8 -72 -89 -72 l-69 0 0 60 0 61 78 -3 77 -3 3 -43z
m-14 -88 c13 -5 16 -26 16 -131 l0 -126 -37 7 c-21 3 -46 6 -55 6 -16 0 -18
12 -18 115 l0 115 29 0 c17 0 33 5 36 10 7 12 8 12 29 4z m-117 -181 c-2 -32
-3 -8 -3 52 0 61 1 87 3 58 2 -29 2 -78 0 -110z m129 -117 c3 -13 4 -38 2 -57
l-3 -34 -77 -3 c-65 -2 -78 0 -78 13 0 13 -39 15 -326 15 -214 0 -323 3 -319
10 4 6 123 10 326 10 l319 0 0 35 0 35 75 0 c70 0 75 -1 81 -24z m-8868 -123
c3 -99 2 -103 -20 -108 -13 -3 -162 -4 -333 -3 l-310 3 -3 94 c-1 52 0 101 2
108 5 11 67 13 333 11 l328 -3 3 -102z m5982 -3 l0 -110 -2964 0 c-2693 0
-2964 1 -2970 16 -8 21 -8 189 1 197 3 4 1340 7 2970 7 l2963 0 0 -110z m1908
-42 l93 -93 20 25 c26 34 50 84 58 123 l7 32 294 3 c162 1 305 0 317 -3 34 -8
21 -29 -75 -127 -84 -85 -85 -88 -68 -107 24 -27 78 -51 114 -51 47 0 51 -26
49 -285 l-2 -230 -497 -3 -498 -2 0 75 c0 54 -4 75 -13 75 -7 0 -52 40 -100
88 -68 69 -85 91 -75 99 33 27 81 43 126 43 36 0 52 4 56 16 3 9 6 105 6 215
l0 199 47 0 c47 0 50 -2 141 -92z m-970 9 c2 -12 -3 -17 -17 -17 -12 0 -21 6
-21 13 0 31 32 34 38 4z m111 10 c12 -15 5 -27 -16 -27 -7 0 -13 9 -13 20 0
23 13 26 29 7z m-254 -67 c-16 -16 -37 -30 -46 -30 -13 0 -17 8 -17 30 1 29 3
30 46 30 l46 0 -29 -30z m123 16 c-10 -7 -18 -21 -18 -30 0 -12 -10 -16 -47
-16 l-47 0 29 30 c22 23 38 30 64 30 32 -1 34 -2 19 -14z m195 -11 c15 -14 27
-28 27 -30 0 -3 -17 -5 -37 -5 -32 0 -41 5 -55 30 l-17 30 27 0 c15 0 39 -11
55 -25z m87 -5 c0 -36 -6 -37 -37 -8 -31 29 -29 38 7 38 27 0 30 -3 30 -30z
m-185 -20 c3 -5 -1 -10 -9 -10 -9 0 -16 5 -16 10 0 6 4 10 9 10 6 0 13 -4 16
-10z m-58 -6 c-3 -3 -12 -4 -19 -1 -8 3 -5 6 6 6 11 1 17 -2 13 -5z m611 -106
c5 -7 12 -24 14 -38 2 -21 9 -26 41 -28 35 -3 37 -5 37 -36 0 -31 -3 -33 -57
-49 -32 -9 -71 -27 -88 -41 l-30 -25 88 -89 c68 -68 85 -91 73 -95 -12 -5 -16
-20 -16 -57 l0 -50 -45 0 c-33 0 -45 -4 -45 -15 0 -12 -16 -15 -85 -15 -69 0
-85 -3 -85 -15 0 -11 -12 -15 -45 -15 l-45 0 0 283 c0 156 3 287 7 290 13 13
270 8 281 -5z m1320 -96 c5 -62 -8 -72 -89 -72 l-69 0 0 53 c0 30 3 57 7 61 4
4 39 5 78 4 l70 -3 3 -43z m0 -219 c3 -118 2 -122 -20 -129 -13 -4 -24 -2 -26
5 -2 6 -17 11 -33 11 l-29 0 0 110 c0 110 0 110 24 110 14 0 28 5 31 11 4 5
17 9 28 7 21 -3 22 -9 25 -125z m-131 -50 c-2 -32 -3 -8 -3 52 0 61 1 87 3 58
2 -29 2 -78 0 -110z m-1537 122 c0 -8 -4 -15 -10 -15 -5 0 -10 7 -10 15 0 8 5
15 10 15 6 0 10 -7 10 -15z m480 -235 l0 -70 514 0 515 0 3 43 3 42 54 3 c106
6 99 19 97 -195 l-1 -188 -52 -3 c-43 -2 -52 0 -55 15 -2 10 -12 18 -23 18
-18 0 -20 8 -23 83 l-3 82 -384 0 -385 0 -1 -27 -1 -28 -7 25 c-6 24 -11 25
-89 28 -54 2 -82 7 -82 14 0 9 -3 9 -12 0 -9 -9 -87 -12 -291 -12 l-278 0 3
33 3 32 90 3 c66 2 92 7 98 17 6 11 28 15 86 15 61 0 80 3 85 15 3 10 19 15
44 15 l39 0 -5 49 c-4 42 -2 50 14 54 43 11 44 9 44 -63z m-760 -15 c0 -3 -4
-13 -9 -23 -5 -9 -12 -25 -15 -34 -4 -14 -16 -18 -55 -18 -47 0 -50 2 -56 30
-4 16 -4 34 0 40 6 10 135 15 135 5z m245 -35 l0 -35 -52 -3 c-47 -3 -53 -1
-53 16 0 11 -7 25 -15 32 -28 24 -15 31 53 28 l67 -3 0 -35z m-197 -22 c-3 -7
-15 -15 -28 -16 -21 -3 -22 -2 -11 12 16 19 44 21 39 4z m52 -3 c10 -13 9 -15
-9 -15 -12 0 -21 6 -21 15 0 8 4 15 9 15 5 0 14 -7 21 -15z m-7322 -216 l3
-106 67 -6 c64 -5 124 -26 138 -49 10 -16 -167 -190 -188 -184 -16 3 -18 -8
-20 -108 l-3 -111 -160 -3 c-88 -1 -170 0 -182 3 l-23 5 0 329 c0 254 3 331
13 334 6 3 89 5 182 4 l170 -2 3 -106z m642 103 c0 -4 -36 -43 -80 -87 -44
-44 -80 -84 -80 -90 0 -15 76 -58 125 -70 l40 -11 0 -204 0 -205 -75 0 -75 0
-12 49 c-7 27 -24 67 -38 88 l-27 40 -40 -38 c-22 -22 -62 -60 -88 -86 -55
-54 -73 -60 -155 -56 l-60 3 -3 105 -3 105 86 85 c47 46 85 90 85 96 0 17 -67
55 -120 68 l-45 11 -3 89 c-2 49 -1 95 2 103 4 10 62 13 286 13 154 0 280 -3
280 -8z m170 -137 l0 -145 -51 0 c-42 0 -52 3 -56 20 -4 16 -14 20 -48 20 -43
0 -128 31 -141 51 -7 12 124 151 171 180 18 12 48 19 78 19 l47 0 0 -145z m54
97 c0 -23 -3 -45 -7 -48 -14 -14 -27 11 -27 52 0 38 3 45 18 42 13 -3 17 -13
16 -46z m56 9 c0 -42 -17 -98 -26 -88 -8 7 -14 108 -8 119 3 4 12 8 20 8 10 0
14 -12 14 -39z m58 -31 c2 -47 -1 -61 -8 -50 -8 12 -12 13 -19 2 -5 -8 -9 12
-10 53 -2 59 0 66 16 63 15 -3 18 -15 21 -68z m52 35 c0 -24 -5 -35 -15 -35
-10 0 -15 11 -15 35 0 24 5 35 15 35 10 0 15 -11 15 -35z m58 -12 c2 -27 -2
-44 -13 -53 -20 -17 -26 -10 -32 40 -4 30 -2 45 8 51 24 15 34 4 37 -38z m60
3 c2 -21 -1 -43 -6 -48 -6 -6 -7 -22 -1 -41 5 -18 9 -60 9 -95 0 -60 -1 -63
-22 -60 -18 2 -24 11 -26 37 -2 19 2 45 8 57 8 13 10 36 6 56 -22 107 -19 142
11 136 13 -2 19 -15 21 -42z m240 -103 l3 -143 -29 0 c-26 0 -32 7 -60 65 -37
74 -38 87 -15 106 14 13 12 15 -22 19 -34 4 -40 9 -46 35 -4 17 -10 38 -14 48
-7 16 0 18 86 15 l94 -3 3 -142z m400 7 c4 -200 23 -181 -181 -178 l-172 3 -3
145 c-1 79 0 150 2 157 4 11 43 13 178 11 l173 -3 3 -135z m287 -20 l0 -155
-120 0 -120 0 -3 145 c-1 79 0 150 3 157 3 11 32 13 122 11 l118 -3 0 -155z
m679 154 c14 -5 16 -28 16 -144 0 -76 -3 -145 -6 -154 -5 -14 -44 -16 -335
-16 l-329 0 0 153 c0 85 3 157 7 160 8 9 626 9 647 1z m4106 -339 l0 -345 -85
0 c-79 0 -86 -2 -94 -22 -13 -34 -144 -159 -157 -150 -18 12 -44 73 -44 104 0
40 -17 26 -25 -20 -3 -21 -15 -51 -25 -67 l-18 -28 -67 64 c-37 35 -74 76 -83
91 l-16 28 -1108 0 -1108 0 0 345 0 345 1415 0 1415 0 0 -345z m710 275 c0
-63 -2 -70 -20 -70 -13 0 -20 -7 -20 -20 0 -13 7 -20 20 -20 18 0 20 -7 20
-65 0 -56 -3 -65 -18 -65 -37 0 -42 20 -42 161 0 142 1 146 43 148 15 1 17 -9
17 -69z m78 -2 l3 -68 -28 0 c-28 0 -28 1 -31 71 l-3 70 28 -3 c27 -3 28 -5
31 -70z m70 63 c20 -12 11 -54 -14 -66 -20 -10 -21 -13 -8 -38 14 -26 14 -27
-11 -27 -24 0 -25 2 -25 63 0 35 3 67 7 70 9 10 35 8 51 -2z m70 -133 l3 -138
-26 0 c-23 0 -25 4 -25 42 0 25 7 49 17 60 16 18 16 21 0 47 -10 17 -17 50
-17 81 0 48 2 51 23 48 21 -3 22 -6 25 -140z m80 22 c3 -128 -1 -160 -23 -160
-8 0 -15 -4 -15 -10 0 -5 -4 -10 -10 -10 -11 0 -14 282 -3 294 4 4 16 6 28 4
19 -3 20 -11 23 -118z m70 38 c3 -78 3 -78 -23 -78 -16 0 -25 -6 -25 -15 0 -8
5 -15 10 -15 15 0 12 -26 -5 -40 -13 -11 -15 1 -15 102 0 63 3 118 7 122 4 4
16 6 28 4 18 -3 20 -11 23 -80z m72 67 c0 -21 -25 -68 -44 -84 -14 -12 -16 -8
-16 37 0 31 5 52 13 55 25 11 47 7 47 -8z m974 9 c13 -5 16 -22 16 -85 0 -74
1 -79 21 -79 12 0 23 -8 26 -20 3 -11 12 -20 19 -20 25 0 16 -13 -63 -92 l-78
-78 30 -25 c17 -13 35 -24 40 -25 6 0 20 -7 32 -15 26 -18 21 -42 -10 -47 -19
-3 -20 -9 -18 -74 2 -51 -2 -74 -12 -82 -11 -9 -107 -12 -368 -10 l-354 3 -3
169 c-2 152 -1 170 15 182 10 7 29 14 44 14 14 0 47 14 74 31 l48 31 -91 91
c-61 61 -92 100 -92 115 l0 22 354 0 c195 0 361 -3 370 -6z m-7793 -28 c9 -18
8 -33 0 -57 -6 -17 -11 -43 -11 -56 0 -14 -4 -21 -10 -18 -13 8 -13 155 0 155
6 0 15 -11 21 -24z m-331 -86 c0 -5 -7 -10 -16 -10 -8 0 -12 5 -9 10 3 6 10
10 16 10 5 0 9 -4 9 -10z m380 -21 c0 -17 -4 -28 -10 -24 -5 3 -10 17 -10 31
0 13 5 24 10 24 6 0 10 -14 10 -31z m-150 -9 c0 -16 -4 -30 -10 -30 -5 0 -10
14 -10 30 0 17 5 30 10 30 6 0 10 -13 10 -30z m-110 -75 c0 -58 -2 -65 -20
-65 -17 0 -20 7 -20 44 0 30 5 46 15 50 8 3 15 12 15 21 0 8 2 15 5 15 3 0 5
-29 5 -65z m-120 45 c0 -5 -4 -10 -10 -10 -5 0 -10 5 -10 10 0 6 5 10 10 10 6
0 10 -4 10 -10z m60 -68 c0 -36 -3 -43 -17 -40 -13 2 -19 15 -21 47 -2 24 0
51 3 60 11 28 35 -17 35 -67z m6728 11 c-3 -66 -4 -68 -30 -71 l-28 -3 0 65
c0 68 -2 65 53 75 4 0 7 -29 5 -66z m62 62 c0 -3 -7 -16 -15 -29 -15 -22 -14
-24 10 -30 18 -5 25 -13 25 -30 0 -32 -7 -36 -41 -19 -25 13 -29 20 -29 57 0
23 3 46 7 49 8 8 43 9 43 2z m-6632 -27 c7 -7 12 -29 12 -50 0 -31 -4 -38 -20
-38 -23 0 -36 37 -26 75 7 28 16 31 34 13z m122 -38 c0 -43 -3 -50 -20 -50
-16 0 -20 7 -20 38 0 36 14 62 32 62 4 0 8 -22 8 -50z m-335 -5 c0 -30 -4 -41
-17 -43 -15 -3 -18 4 -18 43 0 39 3 46 18 43 13 -2 17 -13 17 -43z m375 -1 c0
-32 -4 -44 -12 -42 -14 5 -23 51 -14 74 11 30 26 12 26 -32z m60 -21 c0 -27
-34 -32 -44 -7 -8 21 -8 59 1 68 11 10 43 -35 43 -61z m-270 12 c0 -24 -5 -35
-15 -35 -10 0 -15 11 -15 35 0 24 5 35 15 35 10 0 15 -11 15 -35z m-340 -35
c0 -19 8 -20 313 -23 l312 -2 -321 -3 c-286 -2 -323 0 -328 14 -10 25 -7 34 9
34 8 0 15 -9 15 -20z m1130 -70 c0 -11 -4 -20 -10 -20 -5 0 -10 9 -10 20 0 11
5 20 10 20 6 0 10 -9 10 -20z m5962 5 c0 -5 -5 -11 -11 -13 -6 -2 -11 4 -11
13 0 9 5 15 11 13 6 -2 11 -8 11 -13z m74 -12 c-10 -10 -19 5 -10 18 6 11 8
11 12 0 2 -7 1 -15 -2 -18z m-631 -243 c8 -16 15 -43 15 -60 0 -20 5 -30 15
-30 10 0 15 10 15 31 0 30 27 89 41 89 3 0 42 -37 85 -82 70 -74 81 -82 111
-79 l33 3 0 -134 0 -134 -65 -64 c-36 -35 -65 -70 -65 -76 0 -7 18 -21 40 -32
42 -21 41 -25 -12 -52 -16 -7 -28 -21 -28 -29 0 -9 29 -46 65 -81 l65 -64 0
-138 c0 -104 -3 -138 -12 -138 -7 0 -22 -3 -34 -6 -17 -5 -25 2 -42 39 -24 52
-106 137 -131 137 -18 -1 -174 -254 -169 -276 5 -24 24 -1 98 124 40 67 79
122 87 122 26 0 101 -89 110 -130 8 -44 25 -53 70 -41 45 13 1451 15 1471 3
10 -7 12 -211 10 -988 l-3 -979 -917 -3 -918 -2 0 399 c0 390 0 399 -20 404
-20 5 -20 14 -20 507 0 397 -3 501 -12 498 -10 -4 -14 -117 -18 -504 l-5 -499
-452 -3 -453 -2 0 525 0 525 299 0 298 0 104 105 c58 59 110 104 119 103 21
-5 56 -75 65 -130 4 -27 11 -50 16 -54 17 -10 10 25 -28 131 -7 22 -24 53 -37
69 l-23 28 -113 -111 -113 -111 -294 0 -294 0 3 148 3 147 40 9 c48 10 110 38
145 66 l25 19 -108 108 -107 109 2 224 3 225 33 -2 c27 -1 47 -15 108 -77 41
-42 78 -76 83 -76 5 0 19 20 31 45 24 49 35 56 45 26 3 -11 15 -31 27 -46 l21
-27 79 79 78 78 183 2 c137 2 183 6 186 15 4 16 132 148 143 148 4 0 14 -13
23 -30z m1763 -138 c9 -7 12 -104 10 -453 l-3 -444 -700 0 -700 0 -3 128 c-2
93 -6 127 -15 127 -22 0 -140 127 -134 144 3 8 25 20 49 26 71 18 76 23 33 30
-49 8 -85 26 -85 44 0 15 123 136 139 136 7 0 11 43 11 129 0 94 3 131 13 134
22 9 1372 7 1385 -1z m-2828 -1452 l0 -690 484 0 c397 0 486 -2 495 -14 8 -9
10 -121 9 -392 l-3 -379 -27 -3 -28 -3 0 365 0 366 -581 0 -580 0 3 28 3 27
103 3 102 3 0 689 c0 453 3 690 10 690 7 0 10 -237 10 -690z m-862 -545 c2
-105 0 -134 -13 -150 -15 -20 -15 -20 -30 -1 -8 11 -15 28 -15 37 0 18 -43
106 -60 123 -6 6 -45 -25 -104 -82 -51 -51 -98 -92 -104 -92 -6 0 -15 6 -19
14 -4 8 -24 16 -43 18 l-35 3 -3 119 c-1 66 0 126 2 133 4 11 48 13 213 11
l208 -3 3 -130z m72 108 c0 -20 -31 -71 -47 -77 -10 -4 -13 7 -13 44 0 38 4
49 18 52 25 6 42 -2 42 -19z m70 -38 c0 -46 -3 -55 -21 -60 -28 -9 -32 -3 -34
58 -2 55 5 68 36 60 16 -4 19 -15 19 -58z m48 57 c9 -6 11 -24 6 -65 -6 -47
-10 -57 -25 -57 -16 0 -19 8 -19 58 0 70 8 83 38 64z m60 -1 c9 -5 12 -25 10
-62 -3 -47 -6 -54 -25 -57 -22 -3 -23 0 -23 56 0 70 7 83 38 63z m341 -163
c10 -24 21 -73 25 -110 l8 -68 574 0 574 0 0 -360 0 -360 -695 0 -695 0 0 387
0 388 82 82 c46 46 88 83 96 83 7 0 21 -19 31 -42z m-459 13 c5 -11 10 -38 10
-60 0 -31 -4 -41 -20 -46 -32 -10 -38 1 -35 62 2 32 4 59 4 61 3 10 32 -2 41
-17z m-233 -13 c24 -31 43 -116 43 -194 l0 -83 128 -3 127 -3 3 -337 2 -338
-380 0 -380 0 0 340 0 339 128 3 127 3 3 60 3 60 82 83 c83 83 97 92 114 70z
m173 -70 c0 -22 -15 -31 -40 -23 -17 5 -20 15 -20 58 l1 52 29 -35 c17 -19 30
-42 30 -52z m124 66 c12 -31 6 -82 -10 -88 -30 -12 -34 -6 -34 49 0 47 3 55
19 55 10 0 22 -7 25 -16z m61 -39 c0 -44 -3 -50 -22 -53 -22 -3 -23 0 -23 53
0 53 1 56 23 53 19 -3 22 -9 22 -53z m-1284 -8 c19 -59 29 -69 29 -31 0 17 11
42 25 58 l26 30 64 -64 c41 -41 65 -73 65 -87 0 -18 6 -22 38 -25 l37 -3 0
-360 0 -360 -197 -3 -198 -2 0 119 0 120 -62 3 -63 3 -3 243 -2 242 40 0 c34
0 40 3 40 21 0 23 118 151 134 146 6 -2 18 -24 27 -50z"/>
<path d="M9277 8334 c-3 -4 -2 -15 4 -25 8 -16 6 -19 -16 -19 -14 0 -25 -4
-25 -10 0 -5 9 -10 20 -10 10 0 24 -8 29 -17 10 -17 10 -17 11 0 0 12 8 17 30
17 20 0 30 -5 30 -15 0 -21 18 -19 22 3 6 31 -4 83 -16 79 -6 -2 -10 -14 -8
-25 2 -15 -2 -22 -13 -22 -10 0 -14 5 -9 13 6 10 4 10 -7 0 -20 -19 -29 -16
-29 12 0 24 -10 32 -23 19z"/>
<path d="M9864 4506 c-10 -43 3 -78 29 -74 19 3 22 9 22 48 0 39 -3 45 -22 48
-17 3 -24 -3 -29 -22z m46 -31 c0 -24 -5 -35 -15 -35 -10 0 -15 11 -15 35 0
24 5 35 15 35 10 0 15 -11 15 -35z"/>
<path d="M9952 4478 c3 -50 5 -53 32 -56 16 -2 33 1 39 7 8 8 2 11 -21 11 -22
0 -32 5 -32 15 0 10 10 15 31 15 17 0 28 4 24 10 -3 6 -17 10 -31 10 -37 0
-30 28 9 33 27 3 26 4 -11 5 l-43 2 3 -52z"/>
<path d="M3220 4414 c-13 -33 -14 -32 14 -27 19 4 25 0 29 -18 4 -22 4 -22 6
-3 0 12 -6 27 -14 34 -13 11 -13 14 2 26 17 12 16 13 -5 14 -15 0 -26 -8 -32
-26z"/>
<path d="M3327 4434 c-4 -4 -4 -18 -1 -30 5 -18 2 -24 -10 -24 -10 0 -13 6
-10 18 5 14 4 15 -5 2 -16 -23 -13 -40 8 -40 11 0 21 -6 24 -12 8 -24 20 2 19
39 -2 37 -13 59 -25 47z"/>
<path d="M3210 4355 c0 -10 29 -24 34 -17 3 6 -3 12 -14 15 -11 3 -20 4 -20 2z"/>
<path d="M2934 4302 c-16 -10 -36 -48 -59 -112 l-20 -55 -70 -6 -70 -5 73 -2
c91 -2 96 -22 5 -22 -86 0 -78 -8 12 -11 l70 -3 6 58 c7 60 36 126 55 126 12
0 142 -125 174 -166 14 -18 30 -19 320 -14 l305 6 -297 2 c-185 1 -299 6 -303
12 -4 7 100 11 302 12 l308 2 -312 6 -313 5 -87 87 c-52 51 -93 84 -99 80z"/>
<path d="M2655 3390 c0 -377 1 -531 2 -342 2 188 2 496 0 685 -1 188 -2 34 -2
-343z"/>
<path d="M3765 3545 c0 -291 1 -409 2 -262 2 148 2 386 0 530 -1 144 -2 24 -2
-268z"/>
<path d="M3795 3545 c0 -291 1 -409 2 -262 2 148 2 386 0 530 -1 144 -2 24 -2
-268z"/>
<path d="M2685 3390 c0 -371 1 -523 2 -338 2 186 2 490 0 675 -1 186 -2 34 -2
-337z"/>
<path d="M1221 3036 c12 -10 59 -15 59 -6 0 5 -14 10 -32 10 -17 0 -29 -2 -27
-4z"/>
<path d="M1305 3030 c-5 -9 -1 -10 12 -6 18 6 20 2 20 -34 0 -42 -5 -48 -26
-27 -11 10 -13 9 -9 -3 3 -8 16 -15 29 -15 22 0 24 4 24 45 0 38 -3 45 -22 48
-11 2 -24 -2 -28 -8z"/>
<path d="M6980 3031 c0 -5 -3 -16 -6 -24 -4 -12 0 -14 15 -10 17 4 21 1 21
-21 0 -26 -23 -37 -33 -16 -3 6 -4 5 -3 -2 4 -21 34 -21 45 0 8 16 6 25 -9 45
l-20 26 22 4 c20 4 19 4 -4 6 -16 0 -28 -3 -28 -8z"/>
<path d="M7041 3036 c12 -10 59 -15 59 -6 0 5 -14 10 -32 10 -17 0 -29 -2 -27
-4z"/>
<path d="M4790 3022 c0 -5 9 -12 21 -15 13 -3 19 -1 16 6 -5 15 -37 22 -37 9z"/>
<path d="M4856 3008 c-9 -34 -8 -37 13 -31 13 3 20 -2 26 -19 7 -21 8 -21 12
-3 3 12 -3 26 -17 37 -17 13 -18 18 -7 18 9 0 19 5 22 10 3 6 -5 10 -18 10
-17 0 -27 -7 -31 -22z"/>
<path d="M1245 2979 c-4 -17 -4 -33 -1 -36 3 -4 6 3 6 15 0 11 5 24 10 27 13
8 13 25 1 25 -5 0 -12 -14 -16 -31z"/>
<path d="M4776 3003 c-12 -12 -6 -55 9 -70 21 -20 47 1 43 35 -3 24 -39 48
-52 35z m44 -43 c0 -11 -7 -20 -15 -20 -8 0 -15 9 -15 20 0 11 7 20 15 20 8 0
15 -9 15 -20z"/>
<path d="M7065 2979 c-10 -42 -2 -45 11 -3 6 19 8 34 3 34 -4 0 -10 -14 -14
-31z"/>
<path d="M4850 2940 c0 -7 24 -20 36 -20 13 0 1 19 -16 23 -11 3 -20 2 -20 -3z"/>
<path d="M2067 2654 c-14 -14 -8 -84 8 -90 26 -10 44 14 41 54 -3 27 -9 38
-23 40 -10 2 -22 0 -26 -4z m33 -8 c0 -11 -19 -15 -25 -6 -3 5 1 10 9 10 9 0
16 -2 16 -4z m0 -51 c0 -16 -6 -25 -15 -25 -15 0 -21 31 -8 43 13 14 23 6 23
-18z"/>
<path d="M2142 2647 c-7 -8 -9 -29 -5 -50 4 -30 10 -37 27 -36 17 1 17 2 4 6
-10 2 -18 9 -18 15 0 6 9 8 21 5 18 -5 20 -1 17 31 -3 39 -26 54 -46 29z m36
-19 c-5 -32 -28 -35 -28 -4 0 17 5 26 16 26 10 0 14 -7 12 -22z"/>
<path d="M3173 2654 c9 -3 15 -9 12 -14 -3 -5 -12 -7 -20 -3 -11 4 -15 -3 -14
-28 0 -32 1 -33 11 -11 14 29 28 28 28 -2 0 -15 -7 -26 -17 -29 -14 -4 -13 -5
4 -6 24 -1 34 22 30 69 -1 19 -8 25 -27 27 -15 1 -18 0 -7 -3z"/>
<path d="M3246 2653 c16 -3 21 -10 18 -26 -4 -21 -4 -21 5 -2 15 31 13 35 -16
34 -22 -1 -24 -3 -7 -6z"/>
<path d="M1595 1877 l0 -758 533 -2 532 -2 -2 760 -3 760 -2 -753 -3 -752
-523 2 -522 3 -5 750 -5 750 0 -758z"/>
<path d="M3242 2580 c0 -14 2 -19 5 -12 2 6 2 18 0 25 -3 6 -5 1 -5 -13z"/>
<path d="M5559 6699 c-8 -15 -8 -19 0 -15 6 4 11 0 11 -9 0 -12 -6 -15 -20
-10 -11 4 -20 2 -20 -4 0 -6 9 -11 20 -11 10 0 23 -7 28 -16 13 -23 20 1 14
49 -5 42 -16 47 -33 16z"/>
<path d="M5617 6713 c-14 -13 -7 -25 8 -13 12 10 16 8 23 -11 6 -15 11 -19 16
-10 14 23 -28 53 -47 34z"/>
<path d="M5615 6630 c-4 -6 7 -10 27 -9 27 0 30 2 13 9 -27 12 -33 12 -40 0z"/>
<path d="M1880 6152 c0 -6 6 -13 13 -16 6 -4 2 -4 -10 -2 -20 4 -23 0 -23 -30
0 -38 30 -63 49 -41 17 21 8 91 -12 95 -9 2 -17 -1 -17 -6z m30 -63 c0 -13 -7
-19 -21 -19 -15 0 -19 4 -15 16 3 9 6 20 6 25 0 4 7 6 15 3 8 -4 15 -15 15
-25z"/>
<path d="M1965 6144 c20 -16 20 -16 -2 -11 -21 5 -23 1 -23 -29 0 -40 23 -55
46 -32 21 21 5 82 -22 86 -18 3 -18 2 1 -14z m15 -54 c0 -11 -7 -20 -15 -20
-8 0 -15 9 -15 20 0 11 7 20 15 20 8 0 15 -9 15 -20z"/>
<path d="M9276 5253 c16 -3 20 -10 16 -29 -2 -13 -8 -27 -13 -30 -12 -7 -12
-34 0 -34 5 0 12 17 16 38 4 20 11 43 17 50 8 9 3 12 -23 11 -21 -1 -26 -3
-13 -6z"/>
<path d="M9337 5254 c-10 -10 -9 -66 2 -82 5 -8 17 -12 27 -10 15 3 19 12 19
48 0 38 -3 45 -20 48 -12 2 -24 0 -28 -4z m43 -39 c0 -24 -5 -35 -15 -35 -10
0 -15 11 -15 35 0 24 5 35 15 35 10 0 15 -11 15 -35z"/>
<path d="M4835 5240 c3 -5 15 -10 26 -10 18 0 19 -1 3 -24 -8 -14 -14 -35 -11
-48 4 -22 4 -22 6 2 1 14 8 34 16 44 24 31 18 46 -16 46 -17 0 -28 -4 -24 -10z"/>
<path d="M4917 5243 c-4 -3 -7 -25 -7 -49 0 -29 5 -44 16 -48 24 -9 44 12 44
48 0 43 -31 72 -53 49z m33 -48 c0 -24 -5 -35 -15 -35 -10 0 -15 11 -15 35 0
24 5 35 15 35 10 0 15 -11 15 -35z"/>
<path d="M9115 4527 c-19 -26 -19 -46 0 -71 24 -31 44 -13 43 38 -1 52 -20 66
-43 33z m32 -3 c-3 -3 -12 -4 -19 -1 -8 3 -5 6 6 6 11 1 17 -2 13 -5z m3 -44
c0 -11 -7 -20 -15 -20 -8 0 -15 9 -15 20 0 11 7 20 15 20 8 0 15 -9 15 -20z"/>
<path d="M9191 4536 c-7 -8 -11 -32 -9 -53 3 -33 6 -38 28 -38 22 0 25 5 28
38 3 36 -10 67 -28 67 -4 0 -13 -6 -19 -14z m34 -42 c0 -19 -6 -30 -17 -32
-14 -3 -18 3 -18 26 0 16 3 32 7 36 14 13 28 -1 28 -30z"/>
<path d="M10412 6809 c-8 -12 -9 -18 -3 -14 6 3 11 -1 11 -11 0 -11 -6 -15
-20 -11 -13 3 -20 0 -20 -9 0 -8 7 -14 16 -14 9 0 23 -8 30 -17 13 -17 13 -17
14 0 0 21 18 23 26 2 4 -8 12 -15 20 -15 29 0 32 102 3 108 -9 2 -22 -11 -31
-30 l-17 -33 0 33 c-1 37 -11 41 -29 11z m85 -5 c-3 -3 -12 -4 -19 -1 -8 3 -5
6 6 6 11 1 17 -2 13 -5z m3 -44 c0 -11 -7 -20 -15 -20 -8 0 -15 9 -15 20 0 11
7 20 15 20 8 0 15 -9 15 -20z"/>
<path d="M1236 6674 c18 -15 18 -15 -4 -11 -21 5 -23 2 -20 -31 3 -32 6 -37
28 -37 22 0 25 4 25 35 1 49 -4 60 -28 60 -20 0 -21 0 -1 -16z m14 -49 c0 -16
-6 -25 -15 -25 -16 0 -19 9 -9 34 9 25 24 19 24 -9z"/>
<path d="M1293 6678 c-8 -11 -9 -28 -4 -81 1 -5 11 -7 24 -5 19 3 22 9 22 48
0 47 -21 65 -42 38z m37 -13 c0 -8 -7 -15 -15 -15 -8 0 -15 7 -15 15 0 8 7 15
15 15 8 0 15 -7 15 -15z m0 -50 c0 -8 -7 -15 -15 -15 -8 0 -15 7 -15 15 0 8 7
15 15 15 8 0 15 -7 15 -15z"/>
<path d="M8119 7459 c-8 -15 -8 -19 0 -15 6 4 11 0 11 -9 0 -12 -6 -15 -20
-10 -14 5 -20 2 -20 -9 0 -9 8 -16 19 -16 11 0 22 -6 24 -12 7 -18 29 12 22
30 -3 8 -5 25 -5 38 0 30 -15 31 -31 3z"/>
<path d="M8177 7474 c-13 -14 -7 -22 12 -17 13 3 21 -1 24 -14 4 -12 5 -9 4 7
-2 24 -26 38 -40 24z"/>
<path d="M8257 7474 c-11 -11 -8 -92 3 -99 6 -3 19 -3 31 0 17 6 20 14 17 53
-2 38 -7 48 -23 50 -12 2 -24 0 -28 -4z m43 -25 c0 -5 -7 -9 -15 -9 -15 0 -20
12 -9 23 8 8 24 -1 24 -14z m0 -44 c0 -8 -7 -15 -15 -15 -8 0 -15 7 -15 15 0
8 7 15 15 15 8 0 15 -7 15 -15z"/>
<path d="M8176 7392 c-13 -12 -5 -22 19 -22 14 0 25 4 25 9 0 10 -36 21 -44
13z"/>
<path d="M9559 6199 c-8 -15 -8 -19 0 -15 6 4 11 0 11 -9 0 -12 -6 -15 -20
-10 -11 4 -20 2 -20 -4 0 -6 9 -11 20 -11 11 0 20 -7 20 -15 0 -18 16 -20 22
-2 7 18 -3 87 -13 87 -4 0 -13 -10 -20 -21z"/>
<path d="M9617 6214 c-13 -14 -7 -22 12 -17 13 3 21 -1 24 -14 4 -12 5 -9 4 7
-2 24 -26 38 -40 24z"/>
<path d="M9711 6189 c-15 -45 -14 -51 10 -44 13 4 27 1 39 -10 19 -17 19 -16
11 12 -12 40 -30 73 -40 73 -5 0 -14 -14 -20 -31z m27 -28 c-15 -5 -21 7 -13
26 7 17 8 17 15 -2 4 -11 3 -22 -2 -24z"/>
<path d="M9616 6133 c-3 -3 -3 -10 0 -14 7 -12 44 -12 44 0 0 10 -36 21 -44
14z"/>
<path d="M10432 5378 c-9 -11 -10 -18 -2 -23 15 -9 12 -25 -6 -25 -9 0 -12 5
-8 13 5 8 2 8 -9 -2 -24 -19 -21 -31 7 -31 15 0 26 -7 29 -17 4 -17 5 -17 6 0
1 21 17 22 25 2 5 -15 45 -21 47 -7 8 56 6 82 -7 93 -19 15 -47 -7 -41 -33 3
-11 0 -18 -8 -18 -8 0 -15 13 -17 32 -3 27 -5 29 -16 16z m78 -23 c0 -8 -7
-15 -15 -15 -8 0 -15 7 -15 15 0 8 7 15 15 15 8 0 15 -7 15 -15z m0 -45 c0 -5
-7 -10 -15 -10 -8 0 -15 5 -15 10 0 6 7 10 15 10 8 0 15 -4 15 -10z"/>
<path d="M1676 4504 c-4 -15 -5 -29 -1 -32 3 -3 5 0 5 6 0 7 7 12 15 12 9 0
15 -10 15 -26 0 -24 -3 -25 -27 -19 -21 5 -25 4 -17 -5 7 -7 20 -10 30 -8 25
4 31 48 9 64 -15 11 -15 13 2 23 17 10 16 10 -3 11 -15 0 -24 -8 -28 -26z"/>
<path d="M1744 4516 c-3 -8 -4 -29 -2 -48 2 -28 7 -33 28 -33 21 0 26 5 28 33
4 35 -11 62 -35 62 -7 0 -16 -6 -19 -14z m36 -42 c0 -45 -24 -42 -28 4 -2 24
1 32 12 32 12 0 16 -10 16 -36z"/>
<path d="M1857 4523 c-4 -3 -7 -15 -7 -25 0 -10 -4 -18 -9 -18 -5 0 -11 -11
-14 -25 -4 -25 -4 -25 15 -8 19 17 21 17 50 0 18 -10 27 -12 21 -5 -6 7 -16
30 -22 51 -12 36 -21 44 -34 30z m23 -39 c0 -8 -6 -14 -14 -14 -9 0 -12 7 -9
20 6 22 23 18 23 -6z"/>
<path d="M2266 4504 c-4 -15 -5 -29 -1 -32 3 -3 5 0 5 6 0 7 7 12 15 12 10 0
15 -10 15 -26 0 -22 -4 -25 -21 -21 -16 4 -19 3 -11 -5 6 -6 18 -8 26 -5 21 8
21 56 0 64 -15 6 -15 8 2 20 17 12 17 13 -3 13 -14 0 -23 -8 -27 -26z"/>
<path d="M2334 4516 c-3 -8 -4 -29 -2 -48 2 -28 7 -33 28 -33 21 0 26 5 28 33
4 35 -11 62 -35 62 -7 0 -16 -6 -19 -14z m44 -38 c-2 -21 -8 -33 -18 -33 -10
0 -16 12 -18 33 -3 27 0 32 18 32 18 0 21 -5 18 -32z"/>
<path d="M7360 4501 c-15 -29 -12 -40 10 -34 16 4 20 0 21 -18 1 -18 2 -20 6
-6 3 10 -3 27 -13 38 -16 17 -16 19 -1 19 10 0 17 5 17 10 0 18 -29 11 -40 -9z"/>
<path d="M7449 4505 c-8 -8 3 -95 12 -89 11 7 12 81 0 88 -4 3 -10 4 -12 1z"/>
<path d="M7350 4430 c0 -6 7 -13 15 -17 24 -9 27 1 5 15 -13 8 -20 8 -20 2z"/>
<path d="M10485 4540 c-4 -6 5 -10 20 -10 15 0 24 4 20 10 -3 6 -12 10 -20 10
-8 0 -17 -4 -20 -10z"/>
<path d="M10550 4524 c-14 -35 0 -79 25 -79 24 0 37 45 21 76 -16 33 -34 34
-46 3z m40 -29 c0 -24 -5 -35 -15 -35 -10 0 -15 11 -15 35 0 24 5 35 15 35 10
0 15 -11 15 -35z"/>
<path d="M10640 4495 c0 -48 3 -55 19 -55 53 0 46 108 -6 110 -9 0 -13 -17
-13 -55z m40 20 c0 -8 -7 -15 -15 -15 -8 0 -15 7 -15 15 0 8 7 15 15 15 8 0
15 -7 15 -15z m0 -46 c0 -5 -7 -9 -15 -9 -15 0 -20 12 -9 23 8 8 24 -1 24 -14z"/>
<path d="M10477 4513 c-14 -13 -6 -20 18 -15 20 3 24 1 19 -11 -3 -8 -1 -18 5
-22 15 -9 14 28 -1 43 -13 13 -31 16 -41 5z"/>
<path d="M10470 4460 c0 -12 28 -25 36 -17 3 3 -4 10 -15 17 -15 7 -21 7 -21
0z"/>
<path d="M8710 3591 c-15 -29 -12 -40 10 -34 16 4 20 0 21 -18 1 -18 2 -20 6
-6 3 10 -3 27 -13 38 -16 17 -16 19 -1 19 10 0 17 5 17 10 0 18 -29 11 -40 -9z"/>
<path d="M8776 3601 c-3 -5 7 -11 22 -14 31 -6 37 -3 27 12 -8 13 -42 14 -49
2z"/>
<path d="M8883 3585 c-3 -9 -3 -19 1 -22 3 -4 6 -1 6 5 0 7 5 12 10 12 6 0 10
-7 10 -15 0 -9 -9 -15 -25 -15 -14 0 -25 -4 -25 -9 0 -5 -3 -18 -6 -28 -5 -17
-5 -17 6 0 14 21 53 22 74 1 20 -19 20 -10 2 24 -8 15 -17 35 -20 45 -7 21
-25 22 -33 2z"/>
<path d="M8795 3540 c-4 -17 -5 -34 -2 -36 2 -3 7 10 11 27 8 42 0 50 -9 9z"/>
<path d="M8703 3520 c2 -8 12 -16 23 -17 13 -2 15 -1 4 4 -8 3 -19 11 -23 17
-6 7 -7 6 -4 -4z"/>
<path d="M9270 2810 c0 -6 7 -13 15 -16 22 -9 22 -169 0 -178 -13 -5 -15 -69
-13 -518 l3 -513 595 -3 c327 -1 605 0 618 3 l22 5 -2 613 -3 612 -617 3
c-423 1 -618 -1 -618 -8z m97 -72 c1 -24 -2 -28 -23 -28 -20 0 -24 5 -24 31 0
26 3 30 22 27 17 -2 23 -10 25 -30z m63 18 c0 -8 3 -21 6 -30 5 -12 0 -16 -20
-16 -22 0 -26 4 -26 30 0 23 4 30 20 30 11 0 20 -6 20 -14z m78 -18 c3 -24 0
-28 -22 -28 -22 0 -26 4 -26 31 0 26 3 30 23 27 16 -2 23 -11 25 -30z m82 2
c0 -26 -4 -30 -28 -30 -25 0 -29 4 -30 30 -1 27 3 30 29 30 26 0 29 -3 29 -30z
m60 0 c0 -25 -4 -30 -25 -30 -21 0 -25 5 -25 30 0 25 4 30 25 30 21 0 25 -5
25 -30z m80 15 c0 -8 -4 -15 -9 -15 -5 0 -11 7 -15 15 -3 9 0 15 9 15 8 0 15
-7 15 -15z m68 -57 c-3 -70 -4 -73 -28 -73 -24 0 -25 3 -28 73 l-3 72 31 0 31
0 -3 -72z m670 -495 l-3 -568 -572 -3 -573 -2 0 480 0 480 248 2 247 3 -3 77
c-2 42 -1 81 3 87 4 8 112 11 331 11 l324 0 -2 -567z m-1097 461 c15 -18 -5
-44 -32 -44 -15 0 -19 7 -19 34 0 29 3 33 20 29 10 -3 25 -11 31 -19z m67 -6
c-2 -25 -8 -33 -23 -33 -14 0 -21 8 -23 27 -3 25 5 32 41 37 5 0 7 -14 5 -31z
m72 -3 c0 -27 -4 -35 -18 -35 -25 0 -42 19 -42 47 0 19 5 23 30 23 28 0 30 -3
30 -35z m80 6 c0 -28 -14 -41 -46 -41 -9 0 -14 11 -14 35 0 32 2 35 30 35 26
0 30 -3 30 -29z m58 -3 c-2 -25 -8 -33 -23 -33 -15 0 -21 8 -23 33 -3 29 -1
32 23 32 24 0 26 -3 23 -32z m76 -21 c-7 -18 -24 -23 -24 -8 0 22 13 42 22 33
5 -5 6 -16 2 -25z"/>
<path d="M9976 2138 c-9 -35 -7 -43 6 -30 17 17 25 15 33 -10 7 -21 7 -22 12
-4 3 11 -2 25 -11 31 -21 16 -20 22 2 28 11 3 8 5 -9 6 -20 1 -28 -5 -33 -21z"/>
<path d="M10056 2144 c-10 -26 -7 -32 14 -27 16 4 20 0 20 -22 0 -23 -3 -26
-21 -22 -16 4 -19 3 -11 -5 6 -6 18 -8 26 -5 20 8 21 56 1 63 -20 8 -19 21 3
27 13 4 12 5 -4 6 -12 0 -25 -6 -28 -15z"/>
<path d="M9970 2080 c0 -6 7 -13 15 -17 24 -9 27 1 5 15 -13 8 -20 8 -20 2z"/>
<path d="M8492 2485 c-11 -24 -10 -25 13 -19 22 5 25 3 25 -21 0 -25 -3 -27
-27 -20 -21 5 -25 4 -17 -5 7 -7 20 -10 30 -8 25 4 32 56 10 64 -21 8 -20 21
2 27 14 4 13 5 -4 6 -13 1 -25 -8 -32 -24z"/>
<path d="M8575 2500 c28 -12 45 -12 45 0 0 6 -15 10 -32 9 -28 0 -30 -2 -13
-9z"/>
<path d="M8650 2459 c0 -49 1 -50 28 -47 21 2 27 8 27 28 0 18 -6 26 -22 28
-25 4 -30 17 -12 28 6 3 15 0 20 -7 4 -7 11 -10 14 -7 12 12 -6 28 -31 28 -22
0 -24 -4 -24 -51z m40 -25 c0 -17 -22 -14 -28 4 -2 7 3 12 12 12 9 0 16 -7 16
-16z"/>
<path d="M8587 2463 c-2 -10 -8 -26 -12 -35 -4 -10 -3 -18 3 -18 5 0 12 14 16
32 7 34 2 50 -7 21z"/>
<path d="M10199 3665 c-1 -3 -2 -9 -3 -14 0 -5 -4 -13 -8 -17 -16 -15 -7 -24
17 -18 21 5 25 3 26 -17 1 -19 2 -20 6 -6 3 10 -3 27 -13 38 -16 17 -16 19 -1
19 10 0 17 5 17 10 0 10 -39 15 -41 5z"/>
<path d="M10271 3656 c-10 -12 -8 -13 8 -9 15 4 21 1 21 -11 0 -9 -5 -16 -12
-16 -9 0 -9 -3 0 -12 7 -7 12 -18 12 -25 0 -11 -5 -11 -20 -3 -14 8 -20 8 -20
0 0 -16 29 -24 44 -11 22 18 11 101 -13 101 -5 0 -14 -6 -20 -14z"/>
<path d="M10192 3574 c10 -10 20 -16 22 -13 3 3 -5 11 -17 18 -21 13 -21 12
-5 -5z"/>
<path d="M8276 1518 c-9 -35 -7 -41 9 -28 18 15 35 5 35 -22 0 -17 -4 -19 -27
-13 -21 5 -25 4 -17 -5 7 -7 20 -10 30 -8 25 4 32 56 10 64 -21 8 -20 21 2 27
11 3 8 5 -9 6 -20 1 -28 -5 -33 -21z"/>
<path d="M8355 1528 c-3 -7 -4 -29 -2 -48 2 -27 7 -35 22 -35 25 0 45 49 27
67 -9 9 -12 7 -12 -10 0 -13 -6 -22 -15 -22 -22 0 -19 47 3 53 16 4 16 5 -1 6
-10 0 -20 -5 -22 -11z m35 -68 c0 -5 -7 -10 -16 -10 -8 0 -12 5 -9 10 3 6 10
10 16 10 5 0 9 -4 9 -10z"/>
<path d="M7038 1484 c17 -8 5 -24 -13 -17 -21 7 -20 -43 0 -64 27 -26 46 -8
43 39 -3 34 -7 43 -23 45 -11 2 -14 0 -7 -3z m22 -54 c0 -11 -7 -20 -15 -20
-8 0 -15 9 -15 20 0 11 7 20 15 20 8 0 15 -9 15 -20z"/>
<path d="M7117 1483 c-3 -5 -1 -28 3 -53 l7 -45 2 53 c1 49 -2 62 -12 45z"/>
<path d="M6226 1554 c18 -15 18 -15 -4 -11 -21 5 -23 2 -20 -31 2 -29 8 -38
25 -40 24 -3 33 17 28 58 -2 14 -4 28 -4 33 -1 4 -11 7 -23 7 -21 0 -21 0 -2
-16z m14 -49 c0 -16 -6 -25 -15 -25 -15 0 -21 31 -8 43 13 14 23 6 23 -18z"/>
<path d="M6284 1559 c-5 -9 -1 -11 14 -7 27 7 38 -8 22 -27 -9 -11 -9 -15 -1
-15 6 0 11 -7 11 -16 0 -12 -7 -15 -25 -12 -14 3 -25 1 -25 -4 0 -5 12 -8 28
-6 25 3 27 6 27 48 0 38 -3 45 -22 48 -11 2 -24 -2 -29 -9z"/>
</g>
</svg>
